<svg width="28" height="32" viewBox="0 0 28 32" fill="none" xmlns="http://www.w3.org/2000/svg">
<path fill-rule="evenodd" clip-rule="evenodd" d="M19.18 16.001C20.556 14.916 21.5615 13.4258 22.0564 11.7383C22.5512 10.0507 22.5107 8.24975 21.9406 6.58642C21.3705 4.92309 20.2991 3.48023 18.8757 2.4589C17.4524 1.43758 15.748 0.888672 14 0.888672C12.252 0.888672 10.5476 1.43758 9.12428 2.4589C7.70092 3.48023 6.62952 4.92309 6.05939 6.58642C5.48926 8.24975 5.44879 10.0507 5.94363 11.7383C6.43847 13.4258 7.44397 14.916 8.82 16.001C6.21952 17.0436 3.98919 18.8469 2.41699 21.1782C0.844784 23.5094 0.00288861 26.2616 0 29.0793V30.4886C0 30.8624 0.1475 31.2208 0.41005 31.4851C0.672601 31.7494 1.0287 31.8979 1.4 31.8979C1.7713 31.8979 2.1274 31.7494 2.38995 31.4851C2.6525 31.2208 2.8 30.8624 2.8 30.4886V29.0793C2.8 26.0892 3.98 23.2215 6.0804 21.1071C8.18081 18.9928 11.0296 17.8049 14 17.8049C16.9704 17.8049 19.8192 18.9928 21.9196 21.1071C24.02 23.2215 25.2 26.0892 25.2 29.0793V30.4886C25.2 30.8624 25.3475 31.2208 25.61 31.4851C25.8726 31.7494 26.2287 31.8979 26.6 31.8979C26.9713 31.8979 27.3274 31.7494 27.59 31.4851C27.8525 31.2208 28 30.8624 28 30.4886V29.0793C27.9971 26.2616 27.1552 23.5094 25.583 21.1782C24.0108 18.8469 21.7805 17.0436 19.18 16.001ZM8.4 9.34917C8.4 8.23424 8.72843 7.14434 9.34377 6.21731C9.95911 5.29028 10.8337 4.56775 11.857 4.14109C12.8802 3.71442 14.0062 3.60279 15.0925 3.8203C16.1788 4.03781 17.1766 4.5747 17.9598 5.36307C18.743 6.15145 19.2763 7.1559 19.4924 8.24941C19.7085 9.34291 19.5976 10.4764 19.1737 11.5064C18.7499 12.5365 18.0321 13.4169 17.1112 14.0363C16.1903 14.6557 15.1076 14.9864 14 14.9864C12.5148 14.9864 11.0904 14.3924 10.0402 13.3353C8.99 12.2781 8.4 10.8442 8.4 9.34917Z" fill="white"/>
</svg>
