<svg width="29" height="30" viewBox="0 0 29 30" fill="none" xmlns="http://www.w3.org/2000/svg">
<path fill-rule="evenodd" clip-rule="evenodd" d="M0 4.45455C0 3.40574 0.416638 2.39988 1.15826 1.65826C1.89988 0.916638 2.90574 0.5 3.95455 0.5H25.0455C26.0943 0.5 27.1001 0.916638 27.8417 1.65826C28.5834 2.39988 29 3.40574 29 4.45455V25.5455C29 26.5943 28.5834 27.6001 27.8417 28.3417C27.1001 29.0834 26.0943 29.5 25.0455 29.5H3.95455C2.90574 29.5 1.89988 29.0834 1.15826 28.3417C0.416638 27.6001 0 26.5943 0 25.5455V4.45455ZM3.95455 3.13636C3.60494 3.13636 3.26966 3.27524 3.02245 3.52245C2.77524 3.76966 2.63636 4.10494 2.63636 4.45455V25.5455C2.63636 25.8951 2.77524 26.2303 3.02245 26.4776C3.26966 26.7248 3.60494 26.8636 3.95455 26.8636H25.0455C25.3951 26.8636 25.7303 26.7248 25.9776 26.4776C26.2248 26.2303 26.3636 25.8951 26.3636 25.5455V4.45455C26.3636 4.10494 26.2248 3.76966 25.9776 3.52245C25.7303 3.27524 25.3951 3.13636 25.0455 3.13636H3.95455Z" fill="white"/>
<path fill-rule="evenodd" clip-rule="evenodd" d="M0 4.45455C0 3.40574 0.416638 2.39988 1.15826 1.65826C1.89988 0.916638 2.90574 0.5 3.95455 0.5H25.0455C26.0943 0.5 27.1001 0.916638 27.8417 1.65826C28.5834 2.39988 29 3.40574 29 4.45455V9.72727H0V4.45455ZM3.95455 3.13636C3.60494 3.13636 3.26966 3.27524 3.02245 3.52245C2.77524 3.76966 2.63636 4.10494 2.63636 4.45455V7.09091H26.3636V4.45455C26.3636 4.10494 26.2248 3.76966 25.9776 3.52245C25.7303 3.27524 25.3951 3.13636 25.0455 3.13636H3.95455Z" fill="white"/>
<path fill-rule="evenodd" clip-rule="evenodd" d="M15.8184 0.5H25.0456C26.0944 0.5 27.1003 0.916638 27.8419 1.65826C28.5835 2.39988 29.0002 3.40574 29.0002 4.45455V9.72727H15.8184V0.5ZM18.4547 3.13636V7.09091H26.3638V4.45455C26.3638 4.10494 26.2249 3.76966 25.9777 3.52245C25.7305 3.27524 25.3952 3.13636 25.0456 3.13636H18.4547Z" fill="white"/>
<path fill-rule="evenodd" clip-rule="evenodd" d="M13.1818 29.4997H3.95455C2.90573 29.4997 1.89988 29.0831 1.15826 28.3415C0.416638 27.5998 0 26.594 0 25.5452V20.2725H13.1818V29.4997ZM10.5455 26.8634V22.9088H2.63636V25.5452C2.63636 25.8948 2.77524 26.2301 3.02245 26.4773C3.26966 26.7245 3.60494 26.8634 3.95455 26.8634H10.5455Z" fill="white"/>
<path fill-rule="evenodd" clip-rule="evenodd" d="M0 7.09082H29V16.3181H0V7.09082ZM2.63636 9.72718V13.6817H26.3636V9.72718H2.63636Z" fill="white"/>
<path fill-rule="evenodd" clip-rule="evenodd" d="M0 13.6816H29V22.9089H0V13.6816ZM2.63636 16.318V20.2725H26.3636V16.318H2.63636Z" fill="white"/>
</svg>
