<svg width="132" height="132" viewBox="0 0 132 132" fill="none" xmlns="http://www.w3.org/2000/svg">
<mask id="mask0" mask-type="alpha" maskUnits="userSpaceOnUse" x="0" y="0" width="132" height="132">
<circle cx="66" cy="66" r="66" fill="#4F9AF1"/>
</mask>
<g mask="url(#mask0)">
<rect y="-8" width="132" height="198" fill="#0061FF"/>
<path fill-rule="evenodd" clip-rule="evenodd" d="M86.5552 76.193C84.24 73.1674 81.4394 71.2026 77.4266 70.0878L73.6667 83.2709C73.6667 84.4852 72.6739 85.4793 71.4614 85.4793C70.2493 85.4793 69.2565 84.4852 69.2565 83.2709V72.7814C69.2565 71.2579 68.0214 70.0208 66.5 70.0208C64.9787 70.0208 63.7437 71.2579 63.7437 72.7814V83.2709C63.7437 84.4852 62.7509 85.4793 61.5387 85.4793C60.3261 85.4793 59.3333 84.4852 59.3333 83.2709L55.5734 70.0878C51.5605 71.2134 48.76 73.1674 46.4451 76.193C45.5298 77.3855 45.0325 79.7815 45 81.0628C45.0109 81.3939 45 81.7805 45 82.1665V84.375V86.5836C45 89.0237 46.9737 91 49.4104 91H83.5894C86.0259 91 88 89.0237 88 86.5836V84.375V82.1665C88 81.7805 87.9892 81.3939 88 81.0628C87.9666 79.7815 87.4699 77.3853 86.5552 76.193ZM54.9231 49.6821C54.9231 56.1304 58.9372 65.6042 66.5 65.6042C73.9313 65.6042 78.0767 56.1304 78.0767 49.6821C78.0767 43.234 72.8946 38 66.5 38C60.1054 38 54.9231 43.234 54.9231 49.6821Z" fill="white"/>
</g>
</svg>
