<svg width="132" height="132" viewBox="0 0 132 132" fill="none" xmlns="http://www.w3.org/2000/svg">
<mask id="mask0" mask-type="alpha" maskUnits="userSpaceOnUse" x="0" y="0" width="132" height="132">
<circle cx="66" cy="66" r="66" fill="#4F9AF1"/>
</mask>
<g mask="url(#mask0)">
<rect y="-33" width="132" height="198" fill="#316bce"/>
<path fill-rule="evenodd" clip-rule="evenodd" d="M85.6224 75.7518C84.3924 74.1267 83.0157 72.8197 81.3647 71.7893C78.8102 77.5159 73.1128 81.4999 66.5 81.4999C59.8876 81.4999 54.1896 77.5159 51.6344 71.7893C49.9948 72.8197 48.6076 74.1266 47.3779 75.7518C46.5052 76.8993 46.031 79.2048 46 80.4378C46.0104 80.7564 46 85.7502 46 85.7502C46 88.0982 47.8819 90 50.2052 90H82.7945C85.1178 90 87 88.0982 87 85.7502C87 85.7502 86.9897 80.7564 87 80.4378C86.9682 79.2048 86.4946 76.8991 85.6224 75.7518ZM60.791 69.0158C59.909 69.1113 59.0672 69.2284 58.2685 69.3665C57.3539 69.5997 56.6597 70.4395 56.6597 71.4384C56.6597 71.8523 56.7758 72.224 56.9749 72.5538C59.1833 75.4112 62.6307 77.2501 66.5001 77.2501C70.2739 77.2501 73.6385 75.5078 75.8571 72.7767C76.1505 72.4157 76.319 71.9478 76.319 71.4384C76.319 70.397 75.5728 69.5261 74.5836 69.3456C73.7645 69.1963 72.9024 69.0684 71.977 68.9732C70.7895 68.7498 69.896 67.9003 69.896 66.6251C69.896 65.4567 70.7578 64.5643 71.9147 64.4148C72.0295 64.394 72.3028 64.3838 72.3028 64.3838C77.9594 63.9792 81.8075 62.8212 84.3398 60.6112C84.687 60.2396 84.8973 59.7394 84.8973 59.1876C84.8973 58.0826 84.0671 57.1798 83.0055 57.0729C79.8833 56.4357 77.5382 53.8219 77.5382 50.6874V50.2412C77.5382 44.0365 72.5972 39 66.5 39C60.4028 39 55.4616 44.0365 55.4616 50.2412V50.6874C55.4616 53.8218 53.1168 56.4357 49.9948 57.0729C48.9332 57.1797 48.1028 58.0825 48.1028 59.1876C48.1028 59.7394 48.3133 60.2396 48.6591 60.6112C51.2043 62.8212 55.051 63.9792 60.718 64.3838C60.8862 64.3838 61.0443 64.394 61.1913 64.4148C62.3677 64.5851 63.1038 65.4348 63.1038 66.6251C63.1038 67.9854 62.0958 68.8558 60.791 69.0158Z" fill="white"/>
</g>
</svg>
