<svg width="18" height="19" viewBox="0 0 18 19" fill="none" xmlns="http://www.w3.org/2000/svg">
<path d="M6.59205 14.4919L5.68125 15.4097C4.89173 16.2038 3.60765 16.2045 2.81857 15.4097C2.43922 15.0277 2.23088 14.5204 2.23088 13.9811C2.23088 13.4418 2.43945 12.9343 2.81835 12.5523L6.17085 9.177C6.86565 8.47787 8.17267 7.44837 9.12532 8.40709C9.5625 8.84775 10.2685 8.84479 10.7026 8.40139C11.1368 7.95798 11.1341 7.24128 10.6969 6.80108C9.07762 5.1704 6.6843 5.47179 4.5999 7.57052L1.24717 10.946C0.4428 11.7563 0 12.834 0 13.9811C0 15.1282 0.4428 16.2057 1.2474 17.016C2.07518 17.8493 3.16215 18.2658 4.24957 18.2658C5.33722 18.2658 6.42465 17.8493 7.25287 17.0155L8.16435 16.0974C8.6013 15.6572 8.60377 14.9408 8.16952 14.4971C7.73595 14.054 7.02922 14.0514 6.59205 14.4919ZM16.7521 1.38003C15.0129 -0.371201 12.5811 -0.466183 10.971 1.1549L9.83565 2.29857C9.39847 2.739 9.39577 3.45525 9.83002 3.89888C10.2643 4.34251 10.9703 4.34502 11.4075 3.90458L12.5424 2.76161C13.3765 1.92115 14.4686 2.26957 15.181 2.98673C15.5608 3.36871 15.7693 3.87627 15.7693 4.41557C15.7693 4.95509 15.5605 5.46265 15.1814 5.84464L11.6046 9.44527C9.96908 11.0919 9.20183 10.3191 8.87445 9.98936C8.43727 9.54893 7.73145 9.55167 7.2972 9.99507C6.86295 10.4385 6.86565 11.1552 7.30282 11.5954C8.05365 12.3516 8.91068 12.7265 9.8091 12.7265C10.9091 12.7265 12.071 12.1644 13.1758 11.0513L16.7526 7.45065C17.5567 6.64034 18 5.56243 18 4.41534C18 3.26871 17.5567 2.1908 16.7521 1.38003Z" fill="#0061FF"/>
</svg>
