<svg width="23" height="21" viewBox="0 0 23 21" fill="none" xmlns="http://www.w3.org/2000/svg">
<path d="M20.79 4.05905H5.78999L4.99999 0.923434C4.93435 0.662989 4.7863 0.431599 4.57856 0.264784C4.37081 0.0979693 4.11486 0.00494833 3.84999 0H0.999998C0.734782 0 0.480429 0.106912 0.292893 0.297217C0.105357 0.487522 0 0.745631 0 1.01476C0 1.28389 0.105357 1.542 0.292893 1.73231C0.480429 1.92261 0.734782 2.02953 0.999998 2.02953H3.22999L3.99999 5.29706L5.99999 15.2214C6.04499 15.5038 6.18729 15.7608 6.40156 15.9466C6.61582 16.1324 6.88813 16.2351 7.16999 16.2362H19.83C20.1239 16.2325 20.4062 16.1184 20.6222 15.9161C20.8382 15.7137 20.9728 15.4373 21 15.1403L22 5.39854C22.0169 5.22784 21.9981 5.05544 21.9447 4.89263C21.8914 4.72982 21.8048 4.58029 21.6906 4.45382C21.5763 4.32735 21.437 4.22681 21.2818 4.15878C21.1266 4.09074 20.959 4.05676 20.79 4.05905ZM19.11 14.2067H7.82998L6.22999 6.08858H19.91L19.11 14.2067Z" fill="white"/>
<path d="M9.51172 20.2952C10.3401 20.2952 11.0117 19.6137 11.0117 18.7731C11.0117 17.9325 10.3401 17.251 9.51172 17.251C8.68329 17.251 8.01172 17.9325 8.01172 18.7731C8.01172 19.6137 8.68329 20.2952 9.51172 20.2952Z" fill="white"/>
<path d="M16.5117 20.2952C17.3401 20.2952 18.0117 19.6137 18.0117 18.7731C18.0117 17.9325 17.3401 17.251 16.5117 17.251C15.6833 17.251 15.0117 17.9325 15.0117 18.7731C15.0117 19.6137 15.6833 20.2952 16.5117 20.2952Z" fill="white"/>
</svg>
