<svg width="32" height="32" viewBox="0 0 32 32" fill="none" xmlns="http://www.w3.org/2000/svg">
<path d="M16 31C7.71573 31 1 24.2843 1 16C1 7.71573 7.71573 1 16 1C24.2843 1 31 7.71573 31 16C31 24.2843 24.2843 31 16 31Z" stroke="#316BCE"/>
<path d="M16.4944 24.3453C21.4122 24.3433 25.4119 20.3427 25.4138 15.4259C25.4148 13.0427 24.4879 10.8018 22.8039 9.11588C21.1199 7.42992 18.8804 6.50103 16.4943 6.5C11.578 6.5 7.57674 10.5011 7.57478 15.4189C7.57411 16.9909 7.98483 18.5253 8.76538 19.878L7.5 24.5L12.2283 23.2597C13.5311 23.9703 14.9979 24.3448 16.4907 24.3453H16.4944Z" fill="#316BCE"/>
<path d="M20.9945 17.5474C20.9388 17.4544 20.7903 17.3987 20.5674 17.2871C20.3446 17.1755 19.2488 16.6364 19.0445 16.562C18.8403 16.4876 18.6916 16.4505 18.5431 16.6735C18.3945 16.8966 17.9674 17.3987 17.8374 17.5474C17.7074 17.6961 17.5774 17.7148 17.3546 17.6032C17.1317 17.4916 16.4136 17.2563 15.5623 16.497C14.8998 15.906 14.4525 15.1762 14.3225 14.9531C14.1925 14.73 14.3086 14.6094 14.4202 14.4983C14.5205 14.3984 14.6431 14.2379 14.7545 14.1078C14.8659 13.9777 14.9031 13.8847 14.9774 13.736C15.0517 13.5872 15.0145 13.4571 14.9588 13.3456C14.9031 13.234 14.4574 12.137 14.2717 11.6908C14.0907 11.2562 13.907 11.3151 13.7702 11.3082C13.6404 11.3017 13.4916 11.3003 13.3431 11.3003C13.1945 11.3003 12.953 11.3561 12.7488 11.5792C12.5445 11.8023 11.9688 12.3415 11.9688 13.4384C11.9688 14.5354 12.7673 15.5952 12.8788 15.7439C12.9902 15.8927 14.4503 18.1438 16.686 19.1091C17.2177 19.3388 17.6328 19.4759 17.9565 19.5786C18.4904 19.7483 18.9763 19.7243 19.3602 19.6669C19.7885 19.6029 20.6788 19.1278 20.8646 18.6072C21.0502 18.0866 21.0502 17.6403 20.9945 17.5474Z" fill="white"/>
</svg>
