<svg width="20" height="21" viewBox="0 0 20 21" fill="none" xmlns="http://www.w3.org/2000/svg">
<path fill-rule="evenodd" clip-rule="evenodd" d="M19 18.8359H1C0.734784 18.8359 0.48043 18.9413 0.292893 19.1288C0.105357 19.3164 0 19.5707 0 19.8359C0 20.1012 0.105357 20.3555 0.292893 20.543C0.48043 20.7306 0.734784 20.8359 1 20.8359H19C19.2652 20.8359 19.5196 20.7306 19.7071 20.543C19.8946 20.3555 20 20.1012 20 19.8359C20 19.5707 19.8946 19.3164 19.7071 19.1288C19.5196 18.9413 19.2652 18.8359 19 18.8359Z" fill="white"/>
<path fill-rule="evenodd" clip-rule="evenodd" d="M2 9.83594V16.8359C2 17.1012 2.10536 17.3555 2.29289 17.543C2.48043 17.7306 2.73478 17.8359 3 17.8359C3.26522 17.8359 3.51957 17.7306 3.70711 17.543C3.89464 17.3555 4 17.1012 4 16.8359V9.83594C4 9.57072 3.89464 9.31637 3.70711 9.12883C3.51957 8.94129 3.26522 8.83594 3 8.83594C2.73478 8.83594 2.48043 8.94129 2.29289 9.12883C2.10536 9.31637 2 9.57072 2 9.83594Z" fill="white"/>
<path fill-rule="evenodd" clip-rule="evenodd" d="M7 9.83594V16.8359C7 17.1012 7.10536 17.3555 7.29289 17.543C7.48043 17.7306 7.73478 17.8359 8 17.8359C8.26522 17.8359 8.51957 17.7306 8.70711 17.543C8.89464 17.3555 9 17.1012 9 16.8359V9.83594C9 9.57072 8.89464 9.31637 8.70711 9.12883C8.51957 8.94129 8.26522 8.83594 8 8.83594C7.73478 8.83594 7.48043 8.94129 7.29289 9.12883C7.10536 9.31637 7 9.57072 7 9.83594Z" fill="white"/>
<path fill-rule="evenodd" clip-rule="evenodd" d="M12 9.83594V16.8359C12 17.1012 12.1054 17.3555 12.2929 17.543C12.4804 17.7306 12.7348 17.8359 13 17.8359C13.2652 17.8359 13.5196 17.7306 13.7071 17.543C13.8946 17.3555 14 17.1012 14 16.8359V9.83594C14 9.57072 13.8946 9.31637 13.7071 9.12883C13.5196 8.94129 13.2652 8.83594 13 8.83594C12.7348 8.83594 12.4804 8.94129 12.2929 9.12883C12.1054 9.31637 12 9.57072 12 9.83594Z" fill="white"/>
<path fill-rule="evenodd" clip-rule="evenodd" d="M17 9.83594V16.8359C17 17.1012 17.1054 17.3555 17.2929 17.543C17.4804 17.7306 17.7348 17.8359 18 17.8359C18.2652 17.8359 18.5196 17.7306 18.7071 17.543C18.8946 17.3555 19 17.1012 19 16.8359V9.83594C19 9.57072 18.8946 9.31637 18.7071 9.12883C18.5196 8.94129 18.2652 8.83594 18 8.83594C17.7348 8.83594 17.4804 8.94129 17.2929 9.12883C17.1054 9.31637 17 9.57072 17 9.83594Z" fill="white"/>
<path fill-rule="evenodd" clip-rule="evenodd" d="M1.81136 7.83562H18.1914C18.5239 7.84576 18.8504 7.74506 19.1194 7.54935C19.3885 7.35365 19.5849 7.07404 19.6776 6.75453C19.7704 6.43502 19.7543 6.09374 19.6319 5.78438C19.5094 5.47502 19.2876 5.21514 19.0014 5.04562L11.0014 0.28562C10.6903 0.0987328 10.3342 0 9.97136 0C9.60847 0 9.25242 0.0987328 8.94136 0.28562L1.00136 5.04562C0.715081 5.21514 0.493283 5.47502 0.370862 5.78438C0.248441 6.09374 0.232345 6.43502 0.325106 6.75453C0.417867 7.07404 0.61422 7.35365 0.883274 7.54935C1.15233 7.74506 1.47881 7.84576 1.81136 7.83562ZM10.0014 2.00562L16.3914 5.83562H3.61136L10.0014 2.00562Z" fill="white"/>
</svg>
