<svg width="36" height="36" viewBox="0 0 36 36" fill="none" xmlns="http://www.w3.org/2000/svg">
<path fill-rule="evenodd" clip-rule="evenodd" d="M17.6787 0C7.99914 0 0.152344 7.8468 0.152344 17.5263C0.152344 27.2058 7.99914 35.0526 17.6787 35.0526C27.3582 35.0526 35.205 27.2058 35.205 17.5263C35.205 7.8468 27.3582 0 17.6787 0ZM8.56641 14.5166H12.5383V26.4503H8.56641V14.5166ZM12.8003 10.824C12.7746 9.65391 11.9378 8.7627 10.5791 8.7627C9.22033 8.7627 8.33203 9.65391 8.33203 10.824C8.33203 11.9699 9.19408 12.8867 10.5275 12.8867H10.5529C11.9378 12.8867 12.8003 11.9699 12.8003 10.824ZM22.29 14.2359C24.9037 14.2359 26.8631 15.9419 26.8631 19.6074L26.863 26.4498H22.8913V20.0653C22.8913 18.4616 22.3165 17.3673 20.8787 17.3673C19.7814 17.3673 19.1278 18.105 18.8408 18.8175C18.7357 19.0729 18.71 19.4287 18.71 19.7854V26.4501H14.7376C14.7376 26.4501 14.79 15.6362 14.7376 14.5164H18.71V16.2067C19.2371 15.3941 20.1813 14.2359 22.29 14.2359Z" fill="white"/>
</svg>
