<svg width="20" height="21" viewBox="0 0 20 21" fill="none" xmlns="http://www.w3.org/2000/svg">
<path fill-rule="evenodd" clip-rule="evenodd" d="M0.756476 19.7468L4.54125 18.754L4.90641 18.9707C6.44176 19.8818 8.20172 20.3639 9.99613 20.3646H10.0002C15.5119 20.3646 19.9978 15.8786 20 10.3646C20.001 7.69262 18.9619 5.18022 17.0739 3.29002C15.1859 1.39982 12.6751 0.358345 10.0041 0.357422C4.48819 0.357422 0.00218952 4.84302 8.50289e-07 10.3565C-0.000773904 12.2461 0.527913 14.0862 1.52892 15.6784L1.76669 16.0567L0.756476 19.7468ZM15.6486 12.9552C15.8583 13.0566 15.9999 13.125 16.0603 13.2259C16.1355 13.3513 16.1355 13.9532 15.8851 14.6555C15.6345 15.3577 14.4335 15.9986 13.8559 16.0849C13.338 16.1623 12.6825 16.1946 11.9624 15.9658C11.5258 15.8272 10.9659 15.6423 10.2486 15.3325C7.43033 14.1156 5.52575 11.384 5.16582 10.8678C5.14061 10.8317 5.12297 10.8064 5.11314 10.7932L5.11071 10.79C4.95162 10.5777 3.88562 9.15543 3.88562 7.68341C3.88562 6.29866 4.56584 5.57285 4.87893 5.23876C4.90038 5.21587 4.92011 5.19482 4.93777 5.17553C5.21332 4.87456 5.53903 4.79932 5.73943 4.79932C5.93982 4.79932 6.14045 4.80117 6.3156 4.80997C6.33721 4.81105 6.35969 4.81092 6.38294 4.81078C6.55812 4.80976 6.77653 4.80848 6.99198 5.32601C7.07488 5.5252 7.19617 5.8205 7.3241 6.13195C7.58278 6.7617 7.86857 7.45747 7.91885 7.55816C7.99402 7.70865 8.04411 7.88413 7.94391 8.08485C7.92887 8.11494 7.91496 8.14335 7.90167 8.17049C7.8264 8.32414 7.77104 8.43716 7.6433 8.58632C7.59306 8.64497 7.54114 8.70821 7.48922 8.77145C7.3858 8.89738 7.2824 9.02331 7.19236 9.11301C7.04186 9.26292 6.88519 9.42556 7.06056 9.72652C7.23592 10.0275 7.83924 11.0119 8.73294 11.8091C9.6936 12.6659 10.5285 13.0281 10.9518 13.2117C11.0344 13.2475 11.1014 13.2766 11.1505 13.3012C11.451 13.4517 11.6264 13.4265 11.8017 13.2259C11.9771 13.0253 12.5532 12.3481 12.7536 12.0472C12.954 11.7463 13.1545 11.7964 13.43 11.8967C13.7056 11.9971 15.1836 12.7243 15.4842 12.8748C15.5429 12.9042 15.5978 12.9307 15.6486 12.9552Z" fill="white"/>
</svg>
