<svg width="36" height="37" viewBox="0 0 36 37" fill="none" xmlns="http://www.w3.org/2000/svg">
<path fill-rule="evenodd" clip-rule="evenodd" d="M18 0.724609C8.20124 0.724609 0.257812 8.66804 0.257812 18.4668C0.257812 28.2655 8.20124 36.2089 18 36.2089C27.7987 36.2089 35.7421 28.2655 35.7421 18.4668C35.7421 8.66804 27.7987 0.724609 18 0.724609ZM25.3921 12.368C26.2064 12.5915 26.8477 13.2499 27.0653 14.086C27.4608 15.6013 27.4608 18.7631 27.4608 18.7631C27.4608 18.7631 27.4608 21.9247 27.0653 23.4402C26.8477 24.2763 26.2064 24.9347 25.3921 25.1582C23.9164 25.5642 17.9983 25.5642 17.9983 25.5642C17.9983 25.5642 12.0803 25.5642 10.6045 25.1582C9.79017 24.9347 9.14888 24.2763 8.93124 23.4402C8.53586 21.9247 8.53586 18.7631 8.53586 18.7631C8.53586 18.7631 8.53586 15.6013 8.93124 14.086C9.14888 13.2499 9.79017 12.5915 10.6045 12.368C12.0803 11.9619 17.9983 11.9619 17.9983 11.9619C17.9983 11.9619 23.9164 11.9619 25.3921 12.368Z" fill="white"/>
<path d="M16.2266 22.0156V16.1016L20.9578 19.0587L16.2266 22.0156Z" fill="white"/>
</svg>
