<svg width="34" height="35" viewBox="0 0 34 35" fill="none" xmlns="http://www.w3.org/2000/svg">
<path fill-rule="evenodd" clip-rule="evenodd" d="M17.3499 27.5329C17.692 24.4825 18.3856 22.5181 20.041 20.8228C22.7537 18.1742 26.155 17.9879 33.5921 17.7633C33.5913 24.4614 33.568 29.4838 31.164 31.9455C28.7014 34.3512 23.9051 34.373 16.9817 34.373C17.0007 33.7413 17.0195 33.1387 17.0396 32.5632C17.108 30.5981 17.1911 28.9485 17.3499 27.5329ZM16.6104 34.373C9.68725 34.373 4.8901 34.3512 2.42755 31.9455C0.0232367 29.4838 0 24.4614 0 17.7633C7.43736 17.9879 10.8384 18.1742 13.5511 20.8228C14.2922 21.5818 14.8406 22.3946 15.2509 23.3348C16.1237 25.3347 16.372 27.9102 16.5232 31.7673C16.5549 32.5772 16.5824 33.4436 16.6104 34.373ZM20.041 14.3324C22.7537 16.9818 26.155 17.1675 33.5921 17.3922C33.5913 10.6944 33.568 5.67203 31.164 3.21004C28.7014 0.805485 23.9051 0.782532 16.9816 0.781971C16.9957 1.24681 17.0096 1.69587 17.0239 2.12999C17.1563 6.13861 17.328 8.87244 18.0197 10.975C18.4516 12.2881 19.0864 13.355 20.041 14.3324ZM0.000546748 17.3922C7.43753 17.1675 10.8382 16.9818 13.5508 14.3324C16.1998 11.6205 16.386 8.21978 16.6105 0.781971C9.6876 0.782532 4.89059 0.805542 2.42783 3.21004C0.023523 5.67203 0.000546995 10.6944 0.000546748 17.3922Z" fill="white"/>
</svg>
