<svg width="36" height="37" viewBox="0 0 36 37" fill="none" xmlns="http://www.w3.org/2000/svg">
<path fill-rule="evenodd" clip-rule="evenodd" d="M18.2578 0.724609C8.45906 0.724609 0.515625 8.66804 0.515625 18.4668C0.515625 28.2655 8.45906 36.2089 18.2578 36.2089C28.0565 36.2089 35.9999 28.2655 35.9999 18.4668C35.9999 8.66804 28.0565 0.724609 18.2578 0.724609ZM14.3537 9.06059C15.363 9.01466 15.6856 9.00342 18.2554 9.00342H18.2525C20.8231 9.00342 21.1445 9.01466 22.1538 9.06059C23.1612 9.10672 23.8492 9.2662 24.4524 9.50021C25.0754 9.7417 25.6017 10.065 26.1281 10.5914C26.6545 11.1173 26.9778 11.6452 27.2202 12.2676C27.4529 12.8693 27.6125 13.5569 27.6599 14.5643C27.7052 15.5736 27.717 15.8961 27.717 18.466C27.717 21.0359 27.7052 21.3576 27.6599 22.3669C27.6125 23.3739 27.4529 24.0617 27.2202 24.6636C26.9778 25.2858 26.6545 25.8137 26.1281 26.3397C25.6023 26.866 25.0752 27.1901 24.453 27.4318C23.851 27.6658 23.1626 27.8253 22.1552 27.8714C21.1459 27.9173 20.8243 27.9286 18.2543 27.9286C15.6846 27.9286 15.3623 27.9173 14.3529 27.8714C13.3457 27.8253 12.6579 27.6658 12.0559 27.4318C11.4339 27.1901 10.906 26.866 10.3802 26.3397C9.85405 25.8137 9.53074 25.2858 9.28885 24.6634C9.05505 24.0617 8.89557 23.3741 8.84924 22.3667C8.8035 21.3574 8.79207 21.0359 8.79207 18.466C8.79207 15.8961 8.8039 15.5734 8.84904 14.5641C8.89438 13.5571 9.05406 12.8693 9.28866 12.2674C9.53114 11.6452 9.85444 11.1173 10.3808 10.5914C10.9068 10.0652 11.4347 9.74189 12.0571 9.50021C12.6587 9.2662 13.3463 9.10672 14.3537 9.06059Z" fill="white"/>
<path fill-rule="evenodd" clip-rule="evenodd" d="M17.4085 10.7094C17.5733 10.7091 17.7506 10.7092 17.942 10.7093L18.2573 10.7094C20.7839 10.7094 21.0833 10.7185 22.081 10.7638C23.0036 10.806 23.5043 10.9602 23.8379 11.0897C24.2795 11.2612 24.5943 11.4662 24.9253 11.7974C25.2565 12.1286 25.4615 12.444 25.6334 12.8856C25.7629 13.2188 25.9173 13.7195 25.9593 14.6421C26.0046 15.6396 26.0145 15.9392 26.0145 18.4646C26.0145 20.9899 26.0046 21.2895 25.9593 22.2871C25.9171 23.2097 25.7629 23.7104 25.6334 24.0435C25.4619 24.4851 25.2565 24.7996 24.9253 25.1306C24.5941 25.4618 24.2797 25.6668 23.8379 25.8383C23.5047 25.9684 23.0036 26.1222 22.081 26.1644C21.0835 26.2097 20.7839 26.2195 18.2573 26.2195C15.7306 26.2195 15.4312 26.2097 14.4337 26.1644C13.5111 26.1218 13.0103 25.9676 12.6766 25.8381C12.235 25.6666 11.9196 25.4616 11.5884 25.1304C11.2572 24.7992 11.0522 24.4845 10.8803 24.0428C10.7508 23.7096 10.5964 23.2089 10.5544 22.2863C10.5091 21.2888 10.5 20.9891 10.5 18.4622C10.5 15.9353 10.5091 15.6372 10.5544 14.6397C10.5966 13.7171 10.7508 13.2164 10.8803 12.8828C11.0518 12.4412 11.2572 12.1258 11.5884 11.7946C11.9196 11.4634 12.235 11.2584 12.6766 11.0865C13.0101 10.9564 13.5111 10.8026 14.4337 10.7603C15.3066 10.7208 15.6449 10.709 17.4085 10.707V10.7094ZM23.3116 12.2802C22.6847 12.2802 22.1761 12.7882 22.1761 13.4153C22.1761 14.0422 22.6847 14.5508 23.3116 14.5508C23.9385 14.5508 24.4471 14.0422 24.4471 13.4153C24.4471 12.7884 23.9385 12.2798 23.3116 12.2798V12.2802ZM13.3985 18.4673C13.3985 15.7838 15.5742 13.608 18.2577 13.6079C20.9414 13.6079 23.1166 15.7837 23.1166 18.4673C23.1166 21.151 20.9416 23.3258 18.2579 23.3258C15.5743 23.3258 13.3985 21.151 13.3985 18.4673Z" fill="white"/>
<path d="M18.2597 15.3135C20.0016 15.3135 21.4139 16.7256 21.4139 18.4677C21.4139 20.2096 20.0016 21.6219 18.2597 21.6219C16.5176 21.6219 15.1055 20.2096 15.1055 18.4677C15.1055 16.7256 16.5176 15.3135 18.2597 15.3135Z" fill="white"/>
</svg>
