<svg width="70" height="70" viewBox="0 0 70 70" fill="none" xmlns="http://www.w3.org/2000/svg">
<circle cx="35" cy="35" r="35" fill="#0061FF"/>
<path fill-rule="evenodd" clip-rule="evenodd" d="M40.18 34.6064C41.556 33.5177 42.5615 32.0227 43.0564 30.3296C43.5512 28.6364 43.5107 26.8296 42.9406 25.1608C42.3705 23.492 41.2991 22.0444 39.8757 21.0197C38.4524 19.995 36.748 19.4443 35 19.4443C33.252 19.4443 31.5476 19.995 30.1243 21.0197C28.7009 22.0444 27.6295 23.492 27.0594 25.1608C26.4893 26.8296 26.4488 28.6364 26.9436 30.3296C27.4385 32.0227 28.444 33.5177 29.82 34.6064C27.2195 35.6523 24.9892 37.4616 23.417 39.8005C21.8448 42.1394 21.0029 44.9006 21 47.7276V49.1415C21 49.5165 21.1475 49.8762 21.4101 50.1413C21.6726 50.4065 22.0287 50.5554 22.4 50.5554C22.7713 50.5554 23.1274 50.4065 23.3899 50.1413C23.6525 49.8762 23.8 49.5165 23.8 49.1415V47.7276C23.8 44.7276 24.98 41.8505 27.0804 39.7292C29.1808 37.6079 32.0296 36.4162 35 36.4162C37.9704 36.4162 40.8192 37.6079 42.9196 39.7292C45.02 41.8505 46.2 44.7276 46.2 47.7276V49.1415C46.2 49.5165 46.3475 49.8762 46.61 50.1413C46.8726 50.4065 47.2287 50.5554 47.6 50.5554C47.9713 50.5554 48.3274 50.4065 48.59 50.1413C48.8525 49.8762 49 49.5165 49 49.1415V47.7276C48.9971 44.9006 48.1552 42.1394 46.583 39.8005C45.0108 37.4616 42.7805 35.6523 40.18 34.6064ZM29.4 27.9326C29.4 26.814 29.7284 25.7206 30.3438 24.7905C30.9591 23.8604 31.8337 23.1355 32.857 22.7074C33.8802 22.2794 35.0062 22.1674 36.0925 22.3856C37.1788 22.6038 38.1766 23.1425 38.9598 23.9334C39.743 24.7244 40.2763 25.7322 40.4924 26.8293C40.7085 27.9264 40.5976 29.0635 40.1737 30.097C39.7499 31.1304 39.0321 32.0137 38.1112 32.6352C37.1903 33.2566 36.1076 33.5883 35 33.5883C33.5148 33.5883 32.0904 32.9925 31.0402 31.9318C29.99 30.8712 29.4 29.4326 29.4 27.9326Z" fill="white"/>
</svg>
