<svg width="70" height="70" viewBox="0 0 70 70" fill="none" xmlns="http://www.w3.org/2000/svg">
<circle cx="35" cy="35" r="35" fill="#0061FF"/>
<path fill-rule="evenodd" clip-rule="evenodd" d="M44.1553 26.6791H43.0593V26.0099C43.0583 25.4752 42.9397 24.948 42.7126 24.4697C42.4856 23.9914 42.1564 23.575 41.7507 23.2531C41.3451 22.9312 40.8742 22.7126 40.3749 22.6145C39.8755 22.5163 39.3614 22.5413 38.8727 22.6875L26.324 26.4599C26.1389 26.5207 25.9725 26.6322 25.8418 26.7829C25.1269 26.9662 24.4911 27.3966 24.0361 28.0052C23.5811 28.6138 23.3332 29.3655 23.332 30.14V43.9836C23.332 44.9015 23.6784 45.7818 24.295 46.4309C24.9116 47.0799 25.7479 47.4446 26.6199 47.4446H44.1553C45.0273 47.4446 45.8635 47.0799 46.4801 46.4309C47.0967 45.7818 47.4431 44.9015 47.4431 43.9836V30.14C47.4431 29.2221 47.0967 28.3418 46.4801 27.6927C45.8635 27.0437 45.0273 26.6791 44.1553 26.6791ZM39.4755 24.9024C39.6418 24.8532 39.8167 24.8461 39.9861 24.8816C40.1555 24.917 40.3145 24.9942 40.4502 25.1066C40.5859 25.2191 40.6944 25.3637 40.7669 25.5287C40.8394 25.6937 40.8738 25.8744 40.8674 26.0561V26.7252H33.5902L39.4755 24.9024ZM45.2512 38.2154H41.9633C41.6727 38.2154 41.3939 38.0939 41.1884 37.8775C40.9828 37.6612 40.8674 37.3678 40.8674 37.0618C40.8674 36.7558 40.9828 36.4624 41.1884 36.2461C41.3939 36.0297 41.6727 35.9082 41.9633 35.9082H45.2512V38.2154ZM45.2512 33.6009H42.1277C41.3385 33.5797 40.5671 33.8493 39.9467 34.3633C39.3263 34.8773 38.8961 35.6033 38.7303 36.4158C38.6399 36.9163 38.6557 37.4317 38.7764 37.9251C38.8971 38.4185 39.1199 38.8777 39.4287 39.2701C39.7376 39.6624 40.1249 39.9781 40.563 40.1946C41.0012 40.4111 41.4793 40.5232 41.9633 40.5227H45.2512V43.9836C45.2512 44.2896 45.1358 44.583 44.9302 44.7994C44.7247 45.0157 44.4459 45.1373 44.1553 45.1373H26.6199C26.3292 45.1373 26.0505 45.0157 25.8449 44.7994C25.6394 44.583 25.524 44.2896 25.524 43.9836V30.14C25.524 29.834 25.6394 29.5406 25.8449 29.3242C26.0505 29.1079 26.3292 28.9863 26.6199 28.9863H44.1553C44.4459 28.9863 44.7247 29.1079 44.9302 29.3242C45.1358 29.5406 45.2512 29.834 45.2512 30.14V33.6009Z" fill="white"/>
</svg>
