<svg width="70" height="70" viewBox="0 0 70 70" fill="none" xmlns="http://www.w3.org/2000/svg">
<circle cx="35" cy="35" r="35" fill="#0061FF"/>
<path d="M47.4998 22H23.8635C23.55 22 23.2494 22.1245 23.0278 22.3461C22.8062 22.5678 22.6816 22.8684 22.6816 23.1818C22.6816 23.4953 22.8062 23.7959 23.0278 24.0175C23.2494 24.2391 23.55 24.3636 23.8635 24.3636H47.4998C47.8133 24.3636 48.1139 24.2391 48.3355 24.0175C48.5571 23.7959 48.6816 23.4953 48.6816 23.1818C48.6816 22.8684 48.5571 22.5678 48.3355 22.3461C48.1139 22.1245 47.8133 22 47.4998 22Z" fill="white"/>
<path d="M47.4998 26.7271H23.8635C23.55 26.7271 23.2494 26.8516 23.0278 27.0732C22.8062 27.2948 22.6816 27.5954 22.6816 27.9089C22.6816 28.2223 22.8062 28.5229 23.0278 28.7445C23.2494 28.9662 23.55 29.0907 23.8635 29.0907H47.4998C47.8133 29.0907 48.1139 28.9662 48.3355 28.7445C48.5571 28.5229 48.6816 28.2223 48.6816 27.9089C48.6816 27.5954 48.5571 27.2948 48.3355 27.0732C48.1139 26.8516 47.8133 26.7271 47.4998 26.7271Z" fill="white"/>
<path d="M47.4998 31.4541H23.8635C23.55 31.4541 23.2494 31.5786 23.0278 31.8002C22.8062 32.0219 22.6816 32.3225 22.6816 32.6359C22.6816 32.9494 22.8062 33.25 23.0278 33.4716C23.2494 33.6932 23.55 33.8177 23.8635 33.8177H47.4998C47.8133 33.8177 48.1139 33.6932 48.3355 33.4716C48.5571 33.25 48.6816 32.9494 48.6816 32.6359C48.6816 32.3225 48.5571 32.0219 48.3355 31.8002C48.1139 31.5786 47.8133 31.4541 47.4998 31.4541Z" fill="white"/>
<path d="M47.4998 36.1821H23.8635C23.55 36.1821 23.2494 36.3066 23.0278 36.5283C22.8062 36.7499 22.6816 37.0505 22.6816 37.3639C22.6816 37.6774 22.8062 37.978 23.0278 38.1996C23.2494 38.4213 23.55 38.5458 23.8635 38.5458H47.4998C47.8133 38.5458 48.1139 38.4213 48.3355 38.1996C48.5571 37.978 48.6816 37.6774 48.6816 37.3639C48.6816 37.0505 48.5571 36.7499 48.3355 36.5283C48.1139 36.3066 47.8133 36.1821 47.4998 36.1821Z" fill="white"/>
<path d="M47.4998 40.9092H23.8635C23.55 40.9092 23.2494 41.0337 23.0278 41.2553C22.8062 41.477 22.6816 41.7776 22.6816 42.091C22.6816 42.4044 22.8062 42.705 23.0278 42.9267C23.2494 43.1483 23.55 43.2728 23.8635 43.2728H47.4998C47.8133 43.2728 48.1139 43.1483 48.3355 42.9267C48.5571 42.705 48.6816 42.4044 48.6816 42.091C48.6816 41.7776 48.5571 41.477 48.3355 41.2553C48.1139 41.0337 47.8133 40.9092 47.4998 40.9092Z" fill="white"/>
<path d="M40.4089 45.6362H23.8635C23.55 45.6362 23.2494 45.7607 23.0278 45.9824C22.8062 46.204 22.6816 46.5046 22.6816 46.818C22.6816 47.1315 22.8062 47.4321 23.0278 47.6537C23.2494 47.8754 23.55 47.9999 23.8635 47.9999H40.4089C40.7224 47.9999 41.023 47.8754 41.2446 47.6537C41.4662 47.4321 41.5907 47.1315 41.5907 46.818C41.5907 46.5046 41.4662 46.204 41.2446 45.9824C41.023 45.7607 40.7224 45.6362 40.4089 45.6362Z" fill="white"/>
</svg>
