<svg width="70" height="70" viewBox="0 0 70 70" fill="none" xmlns="http://www.w3.org/2000/svg">
<circle cx="35" cy="35" r="35" fill="#0061FF"/>
<path fill-rule="evenodd" clip-rule="evenodd" d="M35.3102 21C33.3081 21 31.3256 21.3943 29.4759 22.1605C27.6262 22.9267 25.9455 24.0497 24.5298 25.4654C21.6707 28.3245 20.0645 32.2023 20.0645 36.2458V37.7703C20.0645 38.1747 20.2251 38.5625 20.511 38.8484C20.7969 39.1343 21.1847 39.2949 21.589 39.2949C21.9934 39.2949 22.3812 39.1343 22.6671 38.8484C22.953 38.5625 23.1136 38.1747 23.1136 37.7703V36.2458C23.1136 33.011 24.3986 29.9088 26.6859 27.6215C28.9732 25.3341 32.0755 24.0492 35.3102 24.0492C38.545 24.0492 41.6472 25.3341 43.9345 27.6215C46.2218 29.9088 47.5068 33.011 47.5068 36.2458V37.7703C47.5068 38.1747 47.6674 38.5625 47.9534 38.8484C48.2393 39.1343 48.6271 39.2949 49.0314 39.2949C49.4357 39.2949 49.8235 39.1343 50.1094 38.8484C50.3954 38.5625 50.556 38.1747 50.556 37.7703V36.2458C50.556 32.2023 48.9497 28.3245 46.0906 25.4654C43.2315 22.6062 39.3536 21 35.3102 21Z" fill="white"/>
<path fill-rule="evenodd" clip-rule="evenodd" d="M40.3249 30.5901L37.2758 33.6392C36.3023 33.173 35.1953 33.0662 34.1506 33.3375C33.106 33.6088 32.1909 34.2408 31.5673 35.1217C30.9436 36.0027 30.6517 37.0758 30.743 38.1513C30.8343 39.2267 31.303 40.2352 32.0662 40.9985C32.8294 41.7617 33.8379 42.2304 34.9134 42.3217C35.9889 42.413 37.062 42.121 37.9429 41.4974C38.8239 40.8738 39.4559 39.9587 39.7272 38.914C39.9985 37.8693 39.8916 36.7623 39.4254 35.7889L42.4746 32.7397C42.7616 32.4526 42.9229 32.0633 42.9229 31.6573C42.9229 31.2513 42.7616 30.8619 42.4746 30.5748C42.1875 30.2877 41.7981 30.1265 41.3921 30.1265C40.9861 30.1265 40.5967 30.2877 40.3097 30.5748L40.3249 30.5901ZM35.3091 39.2954C35.0075 39.2954 34.7128 39.206 34.462 39.0385C34.2113 38.8709 34.0159 38.6328 33.9005 38.3543C33.7851 38.0757 33.7549 37.7691 33.8138 37.4734C33.8726 37.1777 34.0178 36.906 34.231 36.6928C34.4442 36.4796 34.7159 36.3344 35.0116 36.2755C35.3074 36.2167 35.6139 36.2469 35.8925 36.3623C36.1711 36.4777 36.4092 36.6731 36.5767 36.9238C36.7442 37.1745 36.8336 37.4693 36.8336 37.7708C36.8336 38.1752 36.673 38.563 36.3871 38.8489C36.1012 39.1348 35.7134 39.2954 35.3091 39.2954Z" fill="white"/>
</svg>
