<svg width="70" height="70" viewBox="0 0 70 70" fill="none" xmlns="http://www.w3.org/2000/svg">
<circle cx="35" cy="35" r="35" fill="#316bce"/>
<path fill-rule="evenodd" clip-rule="evenodd" d="M22.0342 24.6302C22.0342 23.5988 22.4439 22.6096 23.1732 21.8803C23.9026 21.1509 24.8918 20.7412 25.9232 20.7412H31.1085C32.14 20.7412 33.1291 21.1509 33.8585 21.8803C34.5878 22.6096 34.9975 23.5988 34.9975 24.6302V29.8156C34.9975 30.847 34.5878 31.8362 33.8585 32.5655C33.1291 33.2948 32.14 33.7046 31.1085 33.7046H25.9232C24.8918 33.7046 23.9026 33.2948 23.1732 32.5655C22.4439 31.8362 22.0342 30.847 22.0342 29.8156V24.6302ZM25.9232 23.3339C25.5794 23.3339 25.2496 23.4705 25.0065 23.7136C24.7634 23.9567 24.6268 24.2864 24.6268 24.6302V29.8156C24.6268 30.1594 24.7634 30.4891 25.0065 30.7322C25.2496 30.9753 25.5794 31.1119 25.9232 31.1119H31.1085C31.4523 31.1119 31.7821 30.9753 32.0252 30.7322C32.2683 30.4891 32.4049 30.1594 32.4049 29.8156V24.6302C32.4049 24.2864 32.2683 23.9567 32.0252 23.7136C31.7821 23.4705 31.4523 23.3339 31.1085 23.3339H25.9232Z" fill="white"/>
<path fill-rule="evenodd" clip-rule="evenodd" d="M37.5898 24.6298C37.5898 24.286 37.7264 23.9563 37.9695 23.7132C38.2126 23.4701 38.5424 23.3335 38.8862 23.3335H46.6642C47.008 23.3335 47.3377 23.4701 47.5808 23.7132C47.8239 23.9563 47.9605 24.286 47.9605 24.6298C47.9605 24.9736 47.8239 25.3034 47.5808 25.5465C47.3377 25.7896 47.008 25.9262 46.6642 25.9262H38.8862C38.5424 25.9262 38.2126 25.7896 37.9695 25.5465C37.7264 25.3034 37.5898 24.9736 37.5898 24.6298Z" fill="white"/>
<path fill-rule="evenodd" clip-rule="evenodd" d="M37.5898 29.8149C37.5898 29.4711 37.7264 29.1414 37.9695 28.8982C38.2126 28.6551 38.5424 28.5186 38.8862 28.5186H44.0715C44.4153 28.5186 44.7451 28.6551 44.9882 28.8982C45.2313 29.1414 45.3679 29.4711 45.3679 29.8149C45.3679 30.1587 45.2313 30.4884 44.9882 30.7315C44.7451 30.9746 44.4153 31.1112 44.0715 31.1112H38.8862C38.5424 31.1112 38.2126 30.9746 37.9695 30.7315C37.7264 30.4884 37.5898 30.1587 37.5898 29.8149Z" fill="white"/>
<path fill-rule="evenodd" clip-rule="evenodd" d="M22.0342 40.1864C22.0342 39.1549 22.4439 38.1658 23.1732 37.4364C23.9026 36.7071 24.8918 36.2974 25.9232 36.2974H31.1085C32.14 36.2974 33.1291 36.7071 33.8585 37.4364C34.5878 38.1658 34.9975 39.1549 34.9975 40.1864V45.3717C34.9975 46.4031 34.5878 47.3923 33.8585 48.1216C33.1291 48.851 32.14 49.2607 31.1085 49.2607H25.9232C24.8918 49.2607 23.9026 48.851 23.1732 48.1216C22.4439 47.3923 22.0342 46.4031 22.0342 45.3717V40.1864ZM25.9232 38.89C25.5794 38.89 25.2496 39.0266 25.0065 39.2697C24.7634 39.5128 24.6268 39.8426 24.6268 40.1864V45.3717C24.6268 45.7155 24.7634 46.0452 25.0065 46.2884C25.2496 46.5315 25.5794 46.668 25.9232 46.668H31.1085C31.4523 46.668 31.7821 46.5315 32.0252 46.2884C32.2683 46.0452 32.4049 45.7155 32.4049 45.3717V40.1864C32.4049 39.8426 32.2683 39.5128 32.0252 39.2697C31.7821 39.0266 31.4523 38.89 31.1085 38.89H25.9232Z" fill="white"/>
<path fill-rule="evenodd" clip-rule="evenodd" d="M37.5898 40.186C37.5898 39.8422 37.7264 39.5124 37.9695 39.2693C38.2126 39.0262 38.5424 38.8896 38.8862 38.8896H46.6642C47.008 38.8896 47.3377 39.0262 47.5808 39.2693C47.8239 39.5124 47.9605 39.8422 47.9605 40.186C47.9605 40.5298 47.8239 40.8595 47.5808 41.1026C47.3377 41.3457 47.008 41.4823 46.6642 41.4823H38.8862C38.5424 41.4823 38.2126 41.3457 37.9695 41.1026C37.7264 40.8595 37.5898 40.5298 37.5898 40.186Z" fill="white"/>
<path fill-rule="evenodd" clip-rule="evenodd" d="M37.5898 45.3715C37.5898 45.0277 37.7264 44.698 37.9695 44.4549C38.2126 44.2118 38.5424 44.0752 38.8862 44.0752H44.0715C44.4153 44.0752 44.7451 44.2118 44.9882 44.4549C45.2313 44.698 45.3679 45.0277 45.3679 45.3715C45.3679 45.7153 45.2313 46.0451 44.9882 46.2882C44.7451 46.5313 44.4153 46.6679 44.0715 46.6679H38.8862C38.5424 46.6679 38.2126 46.5313 37.9695 46.2882C37.7264 46.0451 37.5898 45.7153 37.5898 45.3715Z" fill="white"/>
</svg>
