<svg width="70" height="70" viewBox="0 0 70 70" fill="none" xmlns="http://www.w3.org/2000/svg">
<circle cx="35" cy="35" r="35" fill="#0061FF"/>
<path d="M19.5194 27.7759H28.712C29.1738 29.5582 30.7815 30.8841 32.7062 30.8841C34.631 30.8841 36.2387 29.5582 36.7005 27.7759H50.4809C51.0507 27.7759 51.5129 27.3136 51.5129 26.7438C51.5129 26.174 51.0507 25.7118 50.4809 25.7118H36.7005C36.2387 23.9294 34.631 22.6035 32.7062 22.6035C30.7815 22.6035 29.1738 23.9294 28.712 25.7118H19.5194C18.9496 25.7118 18.4873 26.174 18.4873 26.7438C18.4873 27.3136 18.9496 27.7759 19.5194 27.7759ZM32.7062 24.6676C33.8512 24.6676 34.7824 25.5989 34.7824 26.7438C34.7824 27.8887 33.8512 28.82 32.7062 28.82C31.5613 28.82 30.63 27.8887 30.63 26.7438C30.63 25.5989 31.5613 24.6676 32.7062 24.6676Z" fill="white"/>
<path d="M50.4809 33.9681H48.2707C47.809 32.1858 46.2013 30.8599 44.2765 30.8599C42.3517 30.8599 40.744 32.1858 40.2822 33.9681H19.5194C18.9496 33.9681 18.4873 34.4304 18.4873 35.0002C18.4873 35.5699 18.9496 36.0322 19.5194 36.0322H40.2822C40.744 37.8145 42.3517 39.1405 44.2765 39.1405C46.2013 39.1405 47.809 37.8145 48.2707 36.0322H50.4809C51.0507 36.0322 51.5129 35.5699 51.5129 35.0002C51.5129 34.4304 51.0507 33.9681 50.4809 33.9681ZM44.2765 37.0764C43.1316 37.0764 42.2003 36.1451 42.2003 35.0002C42.2003 33.8552 43.1316 32.924 44.2765 32.924C45.4214 32.924 46.3527 33.8552 46.3527 35.0002C46.3527 36.1451 45.4214 37.0764 44.2765 37.0764Z" fill="white"/>
<path d="M50.4809 42.2245H30.4841C30.0224 40.4421 28.4148 39.1162 26.4911 39.1162C24.5663 39.1162 22.9586 40.4421 22.4968 42.2245H19.5194C18.9496 42.2245 18.4873 42.6867 18.4873 43.2565C18.4873 43.8263 18.9496 44.2886 19.5194 44.2886H22.4968C22.9586 46.0709 24.5663 47.3968 26.4911 47.3968C28.4148 47.3968 30.0224 46.0709 30.4841 44.2886H50.4809C51.0507 44.2886 51.5129 43.8263 51.5129 43.2565C51.5129 42.6867 51.0507 42.2245 50.4809 42.2245ZM26.4911 45.3327C25.3461 45.3327 24.4149 44.4014 24.4149 43.2565C24.4149 42.1116 25.3461 41.1803 26.4911 41.1803C27.6347 41.1803 28.5659 42.1116 28.5659 43.2565C28.5659 44.4014 27.6347 45.3327 26.4911 45.3327Z" fill="white"/>
</svg>
