<svg width="70" height="70" viewBox="0 0 70 70" fill="none" xmlns="http://www.w3.org/2000/svg">
<circle cx="35" cy="35" r="35" fill="#0061FF"/>
<path d="M22.986 34.904C23.4553 34.4787 23.7927 34.0607 23.998 33.65C24.2033 33.2393 24.306 32.7187 24.306 32.088C24.306 31.2667 24.0713 30.6067 23.602 30.108C23.1327 29.6093 22.4213 29.36 21.468 29.36C20.5293 29.36 19.8253 29.6093 19.356 30.108C18.8867 30.592 18.5493 31.252 18.344 32.088C18.3 32.2493 18.2267 32.374 18.124 32.462C18.0213 32.55 17.904 32.594 17.772 32.594H16.76C16.628 32.594 16.5107 32.55 16.408 32.462C16.32 32.3593 16.276 32.242 16.276 32.11C16.3053 31.362 16.5253 30.6213 16.936 29.888C17.3613 29.1547 17.9627 28.5533 18.74 28.084C19.5173 27.6147 20.4267 27.38 21.468 27.38C22.5093 27.38 23.3967 27.5927 24.13 28.018C24.878 28.4287 25.4427 28.9933 25.824 29.712C26.2053 30.416 26.396 31.208 26.396 32.088C26.396 33.012 26.2347 33.804 25.912 34.464C25.604 35.1093 25.0687 35.7693 24.306 36.444L19.4 41.02H26.132C26.2933 41.02 26.4327 41.0787 26.55 41.196C26.6673 41.3133 26.726 41.4527 26.726 41.614V42.406C26.726 42.5673 26.6673 42.7067 26.55 42.824C26.4327 42.9413 26.2933 43 26.132 43H16.65C16.4887 43 16.3493 42.9413 16.232 42.824C16.1147 42.7067 16.056 42.5673 16.056 42.406V41.614C16.056 41.4527 16.0853 41.3207 16.144 41.218C16.2173 41.1007 16.3493 40.954 16.54 40.778L22.986 34.904ZM35.5487 41.68C35.5487 41.8413 35.49 41.9807 35.3727 42.098C35.2554 42.2153 35.116 42.274 34.9547 42.274H34.1407C33.9794 42.274 33.84 42.2153 33.7227 42.098C33.6054 41.9807 33.5467 41.8413 33.5467 41.68V37.302H29.2347C29.0734 37.302 28.934 37.2433 28.8167 37.126C28.6994 37.0087 28.6407 36.8693 28.6407 36.708V36.026C28.6407 35.8647 28.6994 35.7253 28.8167 35.608C28.934 35.4907 29.0734 35.432 29.2347 35.432H33.5467V31.12C33.5467 30.9587 33.6054 30.8193 33.7227 30.702C33.84 30.5847 33.9794 30.526 34.1407 30.526H34.9547C35.116 30.526 35.2554 30.5847 35.3727 30.702C35.49 30.8193 35.5487 30.9587 35.5487 31.12V35.432H39.8827C40.044 35.432 40.1834 35.4907 40.3007 35.608C40.418 35.7253 40.4767 35.8647 40.4767 36.026V36.708C40.4767 36.8693 40.418 37.0087 40.3007 37.126C40.1834 37.2433 40.044 37.302 39.8827 37.302H35.5487V41.68ZM49.3044 34.904C49.7737 34.4787 50.111 34.0607 50.3164 33.65C50.5217 33.2393 50.6244 32.7187 50.6244 32.088C50.6244 31.2667 50.3897 30.6067 49.9204 30.108C49.451 29.6093 48.7397 29.36 47.7864 29.36C46.8477 29.36 46.1437 29.6093 45.6744 30.108C45.205 30.592 44.8677 31.252 44.6624 32.088C44.6184 32.2493 44.545 32.374 44.4424 32.462C44.3397 32.55 44.2224 32.594 44.0904 32.594H43.0784C42.9464 32.594 42.829 32.55 42.7264 32.462C42.6384 32.3593 42.5944 32.242 42.5944 32.11C42.6237 31.362 42.8437 30.6213 43.2544 29.888C43.6797 29.1547 44.281 28.5533 45.0584 28.084C45.8357 27.6147 46.745 27.38 47.7864 27.38C48.8277 27.38 49.715 27.5927 50.4484 28.018C51.1964 28.4287 51.761 28.9933 52.1424 29.712C52.5237 30.416 52.7144 31.208 52.7144 32.088C52.7144 33.012 52.553 33.804 52.2304 34.464C51.9224 35.1093 51.387 35.7693 50.6244 36.444L45.7184 41.02H52.4504C52.6117 41.02 52.751 41.0787 52.8684 41.196C52.9857 41.3133 53.0444 41.4527 53.0444 41.614V42.406C53.0444 42.5673 52.9857 42.7067 52.8684 42.824C52.751 42.9413 52.6117 43 52.4504 43H42.9684C42.807 43 42.6677 42.9413 42.5504 42.824C42.433 42.7067 42.3744 42.5673 42.3744 42.406V41.614C42.3744 41.4527 42.4037 41.3207 42.4624 41.218C42.5357 41.1007 42.6677 40.954 42.8584 40.778L49.3044 34.904Z" fill="white"/>
</svg>
