<svg width="70" height="70" viewBox="0 0 70 70" fill="none" xmlns="http://www.w3.org/2000/svg">
<circle cx="35" cy="35" r="35" fill="#316bce"/>
<path d="M44.8226 22H25.4991C24.5382 22 23.6166 22.3817 22.9372 23.0612C22.2577 23.7407 21.876 24.6622 21.876 25.6232V44.9467C21.876 45.9076 22.2577 46.8292 22.9372 47.5086C23.6166 48.1881 24.5382 48.5698 25.4991 48.5698H44.8226C45.7836 48.5698 46.7051 48.1881 47.3846 47.5086C48.0641 46.8292 48.4458 45.9076 48.4458 44.9467V25.6232C48.4458 24.6622 48.0641 23.7407 47.3846 23.0612C46.7051 22.3817 45.7836 22 44.8226 22ZM25.4991 24.4154H44.8226C45.143 24.4154 45.4501 24.5427 45.6766 24.7692C45.9031 24.9957 46.0304 25.3029 46.0304 25.6232V29.2463H24.2914V25.6232C24.2914 25.3029 24.4187 24.9957 24.6451 24.7692C24.8716 24.5427 25.1788 24.4154 25.4991 24.4154ZM44.8226 46.1544H25.4991C25.1788 46.1544 24.8716 46.0271 24.6451 45.8007C24.4187 45.5742 24.2914 45.267 24.2914 44.9467V31.6618H46.0304V44.9467C46.0304 45.267 45.9031 45.5742 45.6766 45.8007C45.4501 46.0271 45.143 46.1544 44.8226 46.1544Z" fill="white"/>
<path d="M27.6729 25.6235H25.7406C25.6072 25.6235 25.499 25.7317 25.499 25.8651V27.7974C25.499 27.9308 25.6072 28.039 25.7406 28.039H27.6729C27.8063 28.039 27.9145 27.9308 27.9145 27.7974V25.8651C27.9145 25.7317 27.8063 25.6235 27.6729 25.6235Z" fill="white"/>
<path d="M31.296 25.6235H29.3636C29.2302 25.6235 29.1221 25.7317 29.1221 25.8651V27.7974C29.1221 27.9308 29.2302 28.039 29.3636 28.039H31.296C31.4294 28.039 31.5375 27.9308 31.5375 27.7974V25.8651C31.5375 25.7317 31.4294 25.6235 31.296 25.6235Z" fill="white"/>
<path d="M34.919 25.6235H32.9867C32.8533 25.6235 32.7451 25.7317 32.7451 25.8651V27.7974C32.7451 27.9308 32.8533 28.039 32.9867 28.039H34.919C35.0524 28.039 35.1606 27.9308 35.1606 27.7974V25.8651C35.1606 25.7317 35.0524 25.6235 34.919 25.6235Z" fill="white"/>
</svg>
