<svg width="25" height="27" viewBox="0 0 25 27" fill="none" xmlns="http://www.w3.org/2000/svg">
<path fill-rule="evenodd" clip-rule="evenodd" d="M0.488281 3.62141C0.488281 2.67753 0.863237 1.77231 1.53066 1.10488C2.19809 0.437456 3.10331 0.0625 4.04719 0.0625H8.79241C9.73629 0.0625 10.6415 0.437456 11.3089 1.10488C11.9764 1.77231 12.3513 2.67753 12.3513 3.62141V8.36663C12.3513 9.31051 11.9764 10.2157 11.3089 10.8832C10.6415 11.5506 9.73629 11.9255 8.79241 11.9255H4.04719C3.10331 11.9255 2.19809 11.5506 1.53066 10.8832C0.863237 10.2157 0.488281 9.31051 0.488281 8.36663V3.62141ZM4.04719 2.43511C3.73257 2.43511 3.43082 2.56009 3.20835 2.78257C2.98587 3.00504 2.86089 3.30678 2.86089 3.62141V8.36663C2.86089 8.68125 2.98587 8.983 3.20835 9.20547C3.43082 9.42795 3.73257 9.55293 4.04719 9.55293H8.79241C9.10704 9.55293 9.40878 9.42795 9.63125 9.20547C9.85373 8.983 9.97871 8.68125 9.97871 8.36663V3.62141C9.97871 3.30678 9.85373 3.00504 9.63125 2.78257C9.40878 2.56009 9.10704 2.43511 8.79241 2.43511H4.04719Z" fill="#0061FF"/>
<path fill-rule="evenodd" clip-rule="evenodd" d="M14.7227 3.62185C14.7227 3.30722 14.8476 3.00548 15.0701 2.78301C15.2926 2.56053 15.5943 2.43555 15.909 2.43555H23.0268C23.3414 2.43555 23.6432 2.56053 23.8656 2.78301C24.0881 3.00548 24.2131 3.30722 24.2131 3.62185C24.2131 3.93648 24.0881 4.23822 23.8656 4.46069C23.6432 4.68317 23.3414 4.80815 23.0268 4.80815H15.909C15.5943 4.80815 15.2926 4.68317 15.0701 4.46069C14.8476 4.23822 14.7227 3.93648 14.7227 3.62185Z" fill="#0061FF"/>
<path fill-rule="evenodd" clip-rule="evenodd" d="M14.7227 8.36697C14.7227 8.05234 14.8476 7.7506 15.0701 7.52812C15.2926 7.30565 15.5943 7.18066 15.909 7.18066H20.6542C20.9688 7.18066 21.2705 7.30565 21.493 7.52812C21.7155 7.7506 21.8405 8.05234 21.8405 8.36697C21.8405 8.6816 21.7155 8.98334 21.493 9.20581C21.2705 9.42829 20.9688 9.55327 20.6542 9.55327H15.909C15.5943 9.55327 15.2926 9.42829 15.0701 9.20581C14.8476 8.98334 14.7227 8.6816 14.7227 8.36697Z" fill="#0061FF"/>
<path fill-rule="evenodd" clip-rule="evenodd" d="M0.488281 17.8577C0.488281 16.9139 0.863237 16.0086 1.53066 15.3412C2.19809 14.6738 3.10331 14.2988 4.04719 14.2988H8.79241C9.73629 14.2988 10.6415 14.6738 11.3089 15.3412C11.9764 16.0086 12.3513 16.9139 12.3513 17.8577V22.603C12.3513 23.5468 11.9764 24.4521 11.3089 25.1195C10.6415 25.7869 9.73629 26.1619 8.79241 26.1619H4.04719C3.10331 26.1619 2.19809 25.7869 1.53066 25.1195C0.863237 24.4521 0.488281 23.5468 0.488281 22.603V17.8577ZM4.04719 16.6714C3.73257 16.6714 3.43082 16.7964 3.20835 17.0189C2.98587 17.2414 2.86089 17.5431 2.86089 17.8577V22.603C2.86089 22.9176 2.98587 23.2193 3.20835 23.4418C3.43082 23.6643 3.73257 23.7893 4.04719 23.7893H8.79241C9.10704 23.7893 9.40878 23.6643 9.63125 23.4418C9.85373 23.2193 9.97871 22.9176 9.97871 22.603V17.8577C9.97871 17.5431 9.85373 17.2414 9.63125 17.0189C9.40878 16.7964 9.10704 16.6714 8.79241 16.6714H4.04719Z" fill="#0061FF"/>
<path fill-rule="evenodd" clip-rule="evenodd" d="M14.7227 17.8572C14.7227 17.5426 14.8476 17.2408 15.0701 17.0184C15.2926 16.7959 15.5943 16.6709 15.909 16.6709H23.0268C23.3414 16.6709 23.6432 16.7959 23.8656 17.0184C24.0881 17.2408 24.2131 17.5426 24.2131 17.8572C24.2131 18.1718 24.0881 18.4736 23.8656 18.696C23.6432 18.9185 23.3414 19.0435 23.0268 19.0435H15.909C15.5943 19.0435 15.2926 18.9185 15.0701 18.696C14.8476 18.4736 14.7227 18.1718 14.7227 17.8572Z" fill="#0061FF"/>
<path fill-rule="evenodd" clip-rule="evenodd" d="M14.7227 22.6023C14.7227 22.2877 14.8476 21.9859 15.0701 21.7635C15.2926 21.541 15.5943 21.416 15.909 21.416H20.6542C20.9688 21.416 21.2705 21.541 21.493 21.7635C21.7155 21.9859 21.8405 22.2877 21.8405 22.6023C21.8405 22.9169 21.7155 23.2187 21.493 23.4412C21.2705 23.6636 20.9688 23.7886 20.6542 23.7886H15.909C15.5943 23.7886 15.2926 23.6636 15.0701 23.4412C14.8476 23.2187 14.7227 22.9169 14.7227 22.6023Z" fill="#0061FF"/>
</svg>
