<svg width="27" height="30" viewBox="0 0 27 30" fill="none" xmlns="http://www.w3.org/2000/svg">
<path fill-rule="evenodd" clip-rule="evenodd" d="M18.0637 14.7516C19.323 13.7553 20.2431 12.3872 20.696 10.8378C21.1488 9.28836 21.1118 7.63487 20.59 6.10772C20.0683 4.58057 19.0878 3.25584 17.7853 2.31814C16.4828 1.38043 14.923 0.876465 13.3234 0.876465C11.7238 0.876465 10.1641 1.38043 8.86154 2.31814C7.55899 3.25584 6.57854 4.58057 6.0568 6.10772C5.53506 7.63487 5.49803 9.28836 5.95087 10.8378C6.40371 12.3872 7.32386 13.7553 8.58309 14.7516C6.20333 15.7088 4.16232 17.3644 2.72356 19.5048C1.2848 21.6452 0.514362 24.1721 0.511719 26.7591V28.053C0.511719 28.3962 0.646699 28.7253 0.886965 28.9679C1.12723 29.2106 1.4531 29.3469 1.79289 29.3469C2.13268 29.3469 2.45855 29.2106 2.69881 28.9679C2.93908 28.7253 3.07406 28.3962 3.07406 28.053V26.7591C3.07406 24.0137 4.1539 21.3808 6.07603 19.4396C7.99815 17.4984 10.6051 16.4078 13.3234 16.4078C16.0417 16.4078 18.6487 17.4984 20.5708 19.4396C22.4929 21.3808 23.5728 24.0137 23.5728 26.7591V28.053C23.5728 28.3962 23.7078 28.7253 23.948 28.9679C24.1883 29.2106 24.5142 29.3469 24.8539 29.3469C25.1937 29.3469 25.5196 29.2106 25.7599 28.9679C26.0001 28.7253 26.1351 28.3962 26.1351 28.053V26.7591C26.1325 24.1721 25.362 21.6452 23.9233 19.5048C22.4845 17.3644 20.4435 15.7088 18.0637 14.7516ZM8.19874 8.64428C8.19874 7.62063 8.4993 6.61997 9.0624 5.76884C9.62551 4.91771 10.4259 4.25433 11.3623 3.8626C12.2987 3.47086 13.3291 3.36837 14.3232 3.56807C15.3173 3.76778 16.2304 4.26071 16.9471 4.98454C17.6638 5.70837 18.1519 6.63058 18.3496 7.63456C18.5474 8.63854 18.4459 9.67919 18.058 10.6249C17.6701 11.5706 17.0133 12.379 16.1705 12.9477C15.3278 13.5164 14.337 13.8199 13.3234 13.8199C11.9643 13.8199 10.6608 13.2746 9.69972 12.304C8.73866 11.3334 8.19874 10.017 8.19874 8.64428Z" fill="#0061FF"/>
</svg>
