<svg width="31" height="24" viewBox="0 0 31 24" fill="none" xmlns="http://www.w3.org/2000/svg">
<path d="M1.17492 5.50042H9.58729C10.0099 7.13146 11.4811 8.34484 13.2425 8.34484C15.0039 8.34484 16.4752 7.13146 16.8977 5.50042H29.5085C30.0299 5.50042 30.4529 5.07738 30.4529 4.55597C30.4529 4.03455 30.0299 3.61151 29.5085 3.61151H16.8977C16.4752 1.98047 15.0039 0.76709 13.2425 0.76709C11.4811 0.76709 10.0099 1.98047 9.58729 3.61151H1.17492C0.653505 3.61151 0.230469 4.03455 0.230469 4.55597C0.230469 5.07738 0.653505 5.50042 1.17492 5.50042ZM13.2425 2.65599C14.2903 2.65599 15.1425 3.50821 15.1425 4.55597C15.1425 5.60372 14.2903 6.45594 13.2425 6.45594C12.1948 6.45594 11.3425 5.60372 11.3425 4.55597C11.3425 3.50821 12.1948 2.65599 13.2425 2.65599Z" fill="#0061FF"/>
<path d="M29.5085 11.1677H27.4859C27.0633 9.53663 25.5921 8.32324 23.8307 8.32324C22.0693 8.32324 20.5981 9.53663 20.1755 11.1677H1.17492C0.653505 11.1677 0.230469 11.5907 0.230469 12.1121C0.230469 12.6335 0.653505 13.0566 1.17492 13.0566H20.1755C20.5981 14.6876 22.0693 15.901 23.8307 15.901C25.5921 15.901 27.0633 14.6876 27.4859 13.0566H29.5085C30.0299 13.0566 30.4529 12.6335 30.4529 12.1121C30.4529 11.5907 30.0299 11.1677 29.5085 11.1677ZM23.8307 14.0121C22.783 14.0121 21.9307 13.1599 21.9307 12.1121C21.9307 11.0644 22.783 10.2121 23.8307 10.2121C24.8785 10.2121 25.7307 11.0644 25.7307 12.1121C25.7307 13.1599 24.8785 14.0121 23.8307 14.0121Z" fill="#0061FF"/>
<path d="M29.5085 18.7228H11.209C10.7865 17.0918 9.31529 15.8784 7.55489 15.8784C5.7935 15.8784 4.32225 17.0918 3.89967 18.7228H1.17492C0.653505 18.7228 0.230469 19.1459 0.230469 19.6673C0.230469 20.1887 0.653505 20.6117 1.17492 20.6117H3.89967C4.32225 22.2428 5.7935 23.4562 7.55489 23.4562C9.31529 23.4562 10.7865 22.2428 11.209 20.6117H29.5085C30.0299 20.6117 30.4529 20.1887 30.4529 19.6673C30.4529 19.1459 30.0299 18.7228 29.5085 18.7228ZM7.55489 21.5673C6.50714 21.5673 5.65492 20.715 5.65492 19.6673C5.65492 18.6195 6.50714 17.7673 7.55489 17.7673C8.60141 17.7673 9.45363 18.6195 9.45363 19.6673C9.45363 20.715 8.60141 21.5673 7.55489 21.5673Z" fill="#0061FF"/>
</svg>
