<svg width="10" height="15" viewBox="0 0 10 15" fill="none" xmlns="http://www.w3.org/2000/svg">
<path d="M4.71813 14.6C4.61146 14.6 4.52079 14.568 4.44613 14.504C4.38213 14.44 4.35013 14.3493 4.35013 14.232V13.112C3.60346 13.048 2.95813 12.8773 2.41413 12.6C1.88079 12.312 1.47013 11.96 1.18213 11.544C0.904792 11.1173 0.755458 10.664 0.734125 10.184C0.734125 10.0987 0.766125 10.024 0.830125 9.96C0.894125 9.896 0.974125 9.864 1.07013 9.864H1.83813C2.04079 9.864 2.17946 9.97067 2.25413 10.184C2.35013 10.632 2.62213 11.0213 3.07013 11.352C3.52879 11.672 4.17946 11.832 5.02213 11.832C5.92879 11.832 6.60613 11.672 7.05413 11.352C7.50213 11.032 7.72613 10.5893 7.72613 10.024C7.72613 9.66133 7.61413 9.36267 7.39013 9.128C7.17679 8.89333 6.85146 8.69067 6.41413 8.52C5.98746 8.33867 5.34213 8.12 4.47813 7.864C3.65679 7.62933 3.00079 7.37867 2.51013 7.112C2.01946 6.84533 1.65146 6.52 1.40613 6.136C1.16079 5.74133 1.03813 5.24533 1.03813 4.648C1.03813 3.848 1.33146 3.176 1.91813 2.632C2.50479 2.088 3.31546 1.768 4.35013 1.672V0.568C4.35013 0.450666 4.38213 0.359999 4.44613 0.296C4.52079 0.232 4.61146 0.2 4.71813 0.2H5.29413C5.40079 0.2 5.48613 0.237333 5.55013 0.311999C5.61413 0.375999 5.64613 0.461333 5.64613 0.568V1.688C6.32879 1.77333 6.91546 1.96533 7.40613 2.264C7.89679 2.56267 8.26479 2.91467 8.51013 3.32C8.76613 3.71467 8.90479 4.11467 8.92613 4.52C8.92613 4.616 8.89413 4.696 8.83013 4.76C8.76613 4.824 8.68613 4.856 8.59013 4.856H7.79013C7.70479 4.856 7.61946 4.82933 7.53413 4.776C7.45946 4.72267 7.41146 4.64267 7.39013 4.536C7.32613 4.07733 7.07013 3.69867 6.62213 3.4C6.17413 3.10133 5.61413 2.952 4.94213 2.952C4.21679 2.952 3.64079 3.096 3.21413 3.384C2.78746 3.66133 2.57413 4.07733 2.57413 4.632C2.57413 5.00533 2.67013 5.30933 2.86213 5.544C3.06479 5.77867 3.36879 5.98667 3.77413 6.168C4.19013 6.34933 4.78746 6.55733 5.56613 6.792C6.47279 7.048 7.18746 7.304 7.71013 7.56C8.23279 7.816 8.62213 8.136 8.87813 8.52C9.13413 8.89333 9.26213 9.37867 9.26213 9.976C9.26213 10.8827 8.93679 11.6133 8.28613 12.168C7.64613 12.7227 6.76613 13.0427 5.64613 13.128V14.232C5.64613 14.3387 5.61413 14.424 5.55013 14.488C5.48613 14.5627 5.40079 14.6 5.29413 14.6H4.71813Z" fill="#0061FF"/>
</svg>
