<svg width="55" height="39" viewBox="0 0 55 39" fill="none" xmlns="http://www.w3.org/2000/svg">
<path fill-rule="evenodd" clip-rule="evenodd" d="M27.5 0C23.8886 0 20.3127 0.711309 16.9762 2.09331C13.6398 3.47532 10.6082 5.50095 8.05456 8.05456C2.89731 13.2118 0 20.2065 0 27.5V30.25C0 30.9793 0.289731 31.6788 0.805456 32.1945C1.32118 32.7103 2.02065 33 2.75 33C3.47935 33 4.17882 32.7103 4.69454 32.1945C5.21027 31.6788 5.5 30.9793 5.5 30.25V27.5C5.5 21.6652 7.81785 16.0695 11.9437 11.9436C16.0695 7.81785 21.6652 5.5 27.5 5.5C33.3348 5.5 38.9305 7.81785 43.0564 11.9436C47.1822 16.0695 49.5 21.6652 49.5 27.5V30.25C49.5 30.9793 49.7897 31.6788 50.3055 32.1945C50.8212 32.7103 51.5207 33 52.25 33C52.9793 33 53.6788 32.7103 54.1945 32.1945C54.7103 31.6788 55 30.9793 55 30.25V27.5C55 20.2065 52.1027 13.2118 46.9454 8.05456C41.7882 2.89731 34.7935 0 27.5 0Z" fill="white"/>
<path fill-rule="evenodd" clip-rule="evenodd" d="M36.5477 17.2982L31.0477 22.7982C29.2918 21.9573 27.295 21.7645 25.4106 22.2538C23.5263 22.7432 21.8757 23.8832 20.7508 25.4723C19.6259 27.0613 19.0993 28.997 19.264 30.9369C19.4287 32.8768 20.2741 34.6959 21.6508 36.0726C23.0274 37.4492 24.8466 38.2947 26.7865 38.4594C28.7264 38.6241 30.662 38.0974 32.2511 36.9725C33.8401 35.8477 34.9801 34.1971 35.4695 32.3127C35.9589 30.4283 35.7661 28.4316 34.9252 26.6757L40.4252 21.1757C40.943 20.6578 41.2339 19.9555 41.2339 19.2232C41.2339 18.4908 40.943 17.7885 40.4252 17.2707C39.9073 16.7528 39.205 16.4619 38.4727 16.4619C37.7404 16.4619 37.038 16.7528 36.5202 17.2707L36.5477 17.2982ZM27.5002 33.0007C26.9563 33.0007 26.4246 32.8394 25.9724 32.5372C25.5201 32.235 25.1677 31.8055 24.9595 31.303C24.7514 30.8005 24.6969 30.2476 24.803 29.7142C24.9091 29.1807 25.171 28.6907 25.5556 28.3061C25.9402 27.9215 26.4302 27.6596 26.9637 27.5535C27.4971 27.4474 28.0501 27.5019 28.5526 27.71C29.0551 27.9181 29.4845 28.2706 29.7867 28.7228C30.0889 29.1751 30.2502 29.7068 30.2502 30.2507C30.2502 30.98 29.9605 31.6795 29.4447 32.1952C28.929 32.7109 28.2295 33.0007 27.5002 33.0007Z" fill="white"/>
</svg>
