<svg width="24" height="23" viewBox="0 0 24 23" fill="none" xmlns="http://www.w3.org/2000/svg">
<path d="M1.65127 2.12529H17.221C17.4963 2.12529 17.7603 2.01593 17.955 1.82127C18.1497 1.62661 18.259 1.36259 18.259 1.0873C18.259 0.812011 18.1497 0.547995 17.955 0.353335C17.7603 0.158675 17.4963 0.0493164 17.221 0.0493164H1.65127C1.37598 0.0493164 1.11196 0.158675 0.9173 0.353335C0.72264 0.547995 0.613281 0.812011 0.613281 1.0873C0.613281 1.36259 0.72264 1.62661 0.9173 1.82127C1.11196 2.01593 1.37598 2.12529 1.65127 2.12529Z" fill="#0061FF"/>
<path d="M1.65127 6.27763H8.91716C9.19245 6.27763 9.45647 6.16827 9.65113 5.97361C9.84579 5.77895 9.95514 5.51494 9.95514 5.23965C9.95514 4.96435 9.84579 4.70034 9.65113 4.50568C9.45647 4.31102 9.19245 4.20166 8.91716 4.20166H1.65127C1.37598 4.20166 1.11196 4.31102 0.9173 4.50568C0.72264 4.70034 0.613281 4.96435 0.613281 5.23965C0.613281 5.51494 0.72264 5.77895 0.9173 5.97361C1.11196 6.16827 1.37598 6.27763 1.65127 6.27763Z" fill="#0061FF"/>
<path d="M1.65127 10.4295H13.0691C13.3444 10.4295 13.6084 10.3201 13.8031 10.1255C13.9977 9.93081 14.1071 9.66679 14.1071 9.3915C14.1071 9.11621 13.9977 8.85219 13.8031 8.65753C13.6084 8.46287 13.3444 8.35352 13.0691 8.35352H1.65127C1.37598 8.35352 1.11196 8.46287 0.9173 8.65753C0.72264 8.85219 0.613281 9.11621 0.613281 9.3915C0.613281 9.66679 0.72264 9.93081 0.9173 10.1255C1.11196 10.3201 1.37598 10.4295 1.65127 10.4295Z" fill="#0061FF"/>
<path d="M1.65127 14.5813H17.221C17.4963 14.5813 17.7603 14.472 17.955 14.2773C18.1497 14.0827 18.259 13.8186 18.259 13.5434C18.259 13.2681 18.1497 13.004 17.955 12.8094C17.7603 12.6147 17.4963 12.5054 17.221 12.5054H1.65127C1.37598 12.5054 1.11196 12.6147 0.9173 12.8094C0.72264 13.004 0.613281 13.2681 0.613281 13.5434C0.613281 13.8186 0.72264 14.0827 0.9173 14.2773C1.11196 14.472 1.37598 14.5813 1.65127 14.5813Z" fill="#0061FF"/>
<path d="M1.65127 18.7332H10.9931C11.2684 18.7332 11.5324 18.6238 11.7271 18.4292C11.9218 18.2345 12.0311 17.9705 12.0311 17.6952C12.0311 17.4199 11.9218 17.1559 11.7271 16.9612C11.5324 16.7666 11.2684 16.6572 10.9931 16.6572H1.65127C1.37598 16.6572 1.11196 16.7666 0.9173 16.9612C0.72264 17.1559 0.613281 17.4199 0.613281 17.6952C0.613281 17.9705 0.72264 18.2345 0.9173 18.4292C1.11196 18.6238 1.37598 18.7332 1.65127 18.7332Z" fill="#0061FF"/>
<path d="M22.411 20.8096H1.65127C1.37598 20.8096 1.11196 20.9189 0.9173 21.1136C0.72264 21.3082 0.613281 21.5723 0.613281 21.8476C0.613281 22.1228 0.72264 22.3869 0.9173 22.5815C1.11196 22.7762 1.37598 22.8855 1.65127 22.8855H22.411C22.6863 22.8855 22.9503 22.7762 23.1449 22.5815C23.3396 22.3869 23.4489 22.1228 23.4489 21.8476C23.4489 21.5723 23.3396 21.3082 23.1449 21.1136C22.9503 20.9189 22.6863 20.8096 22.411 20.8096Z" fill="#0061FF"/>
</svg>
