<svg width="48" height="47" viewBox="0 0 29 28" fill="none" xmlns="http://www.w3.org/2000/svg">
<path d="M25.8842 8.13636H26.3842V7.63636V3.81818C26.3842 3.34803 26.1975 2.89713 25.865 2.56467L25.5115 2.91823L25.865 2.56467C25.5326 2.23222 25.0817 2.04545 24.6115 2.04545H4.24787C3.77771 2.04545 3.32681 2.23222 2.99436 2.56467C2.66191 2.89713 2.47514 3.34803 2.47514 3.81818V7.63636V8.13636H2.97514H25.8842ZM2.97514 9.68182H2.47514V10.1818V24.1818C2.47514 24.652 2.66191 25.1029 2.99436 25.4353L3.34792 25.0818L2.99436 25.4353C3.32681 25.7678 3.77771 25.9545 4.24787 25.9545H24.6115C25.0817 25.9545 25.5326 25.7678 25.865 25.4353L25.5115 25.0818L25.865 25.4353C26.1975 25.1029 26.3842 24.652 26.3842 24.1818V10.1818V9.68182H25.8842H2.97514ZM4.24787 0.5H24.6115C25.4915 0.5 26.3355 0.849593 26.9578 1.47187C27.5801 2.09415 27.9297 2.93815 27.9297 3.81818V24.1818C27.9297 25.0619 27.5801 25.9058 26.9578 26.5281C26.3355 27.1504 25.4915 27.5 24.6115 27.5H4.24787C3.36783 27.5 2.52384 27.1504 1.90156 26.5281C1.27928 25.9058 0.929688 25.0619 0.929688 24.1818V3.81818C0.929688 2.93815 1.27928 2.09415 1.90156 1.47187C2.52384 0.849593 3.36783 0.5 4.24787 0.5Z" fill="#FFFFFF" stroke="#FFFFFF"/>
<path d="M4.74609 5.86333V4.31787H6.29155V5.86333H4.74609Z" fill="#FFFFFF" stroke="#FFFFFF"/>
<path d="M8.56641 5.86333V4.31787H10.1119V5.86333H8.56641Z" fill="#FFFFFF" stroke="#FFFFFF"/>
<path d="M12.3828 5.86333V4.31787H13.9283V5.86333H12.3828Z" fill="#FFFFFF" stroke="#FFFFFF"/>
</svg>
