<svg width="40" height="40" viewBox="0 0 24 24" fill="none" xmlns="http://www.w3.org/2000/svg">
<path d="M23.6805 1.8623C23.8851 1.65771 24 1.38024 24 1.09091C24 0.801582 23.8851 0.524105 23.6805 0.31952C23.4759 0.114935 23.1984 0 22.9091 0H1.09091C0.801582 0 0.524105 0.114935 0.31952 0.31952C0.114935 0.524105 0 0.801582 0 1.09091C0 1.38024 0.114935 1.65771 0.31952 1.8623C0.524105 2.06688 0.801582 2.18182 1.09091 2.18182H22.9091C23.1984 2.18182 23.4759 2.06688 23.6805 1.8623ZM23.6805 1.8623L23.3269 1.50874C23.4377 1.39793 23.5 1.24763 23.5 1.09091C23.5 0.934188 23.4377 0.783889 23.3269 0.673074L23.679 0.320987L23.3269 0.673072C23.2161 0.562257 23.0658 0.5 22.9091 0.5H1.09091C0.93419 0.5 0.78389 0.562256 0.673073 0.673073C0.562256 0.78389 0.5 0.93419 0.5 1.09091C0.5 1.24763 0.562256 1.39793 0.673073 1.50875C0.78389 1.61956 0.93419 1.68182 1.09091 1.68182H22.9091C23.0658 1.68182 23.2161 1.61956 23.3269 1.50875L23.6805 1.8623Z" fill="#FFFFFF" stroke="#FFFFFF"/>
<path d="M1.09091 4.86328H22.9091C23.0658 4.86328 23.2161 4.92554 23.3269 5.03635L23.6805 4.6828L23.3269 5.03636C23.4377 5.14717 23.5 5.29747 23.5 5.45419C23.5 5.61091 23.4377 5.76121 23.3269 5.87203L23.6805 6.22558L23.3269 5.87203C23.2161 5.98284 23.0658 6.0451 22.9091 6.0451H1.09091C0.93419 6.0451 0.78389 5.98284 0.673073 5.87203C0.562256 5.76121 0.5 5.61091 0.5 5.45419C0.5 5.29747 0.562256 5.14717 0.673073 5.03635C0.78389 4.92554 0.934191 4.86328 1.09091 4.86328Z" fill="#FFFFFF" stroke="#FFFFFF"/>
<path d="M23.6805 9.04657C23.8851 9.25116 24 9.52863 24 9.81796C24 10.1073 23.8851 10.3848 23.6805 10.5893M23.6805 9.04657L23.3269 9.40013C23.4377 9.51094 23.5 9.66124 23.5 9.81796C23.5 9.97468 23.4377 10.125 23.3269 10.2358L23.6805 10.5893M23.6805 9.04657L23.3269 9.40012C23.2161 9.28931 23.0658 9.22705 22.9091 9.22705H1.09091C0.934191 9.22705 0.78389 9.28931 0.673073 9.40012C0.562256 9.51094 0.5 9.66124 0.5 9.81796C0.5 9.97468 0.562256 10.125 0.673073 10.2358C0.78389 10.3466 0.93419 10.4089 1.09091 10.4089H22.9091C23.0658 10.4089 23.2161 10.3466 23.3269 10.2358L23.6805 10.5893M23.6805 9.04657C23.4759 8.84199 23.1984 8.72705 22.9091 8.72705H1.09091C0.801582 8.72705 0.524105 8.84199 0.31952 9.04657C0.114935 9.25116 0 9.52863 0 9.81796C0 10.1073 0.114935 10.3848 0.31952 10.5893C0.524105 10.7939 0.801582 10.9089 1.09091 10.9089H22.9091C23.1984 10.9089 23.4759 10.7939 23.6805 10.5893" fill="#FFFFFF" stroke="#FFFFFF"/>
<path d="M23.6805 14.9531C23.8851 14.7485 24 14.4711 24 14.1817C24 13.8924 23.8851 13.6149 23.6805 13.4103C23.4759 13.2058 23.1984 13.0908 22.9091 13.0908H1.09091C0.801582 13.0908 0.524105 13.2058 0.31952 13.4103C0.114935 13.6149 0 13.8924 0 14.1817C0 14.4711 0.114935 14.7485 0.31952 14.9531C0.524105 15.1577 0.801582 15.2726 1.09091 15.2726H22.9091C23.1984 15.2726 23.4759 15.1577 23.6805 14.9531ZM23.6805 14.9531L23.3269 14.5996C23.4377 14.4887 23.5 14.3384 23.5 14.1817C23.5 14.025 23.4377 13.8747 23.3269 13.7639L23.6788 13.412L23.3269 13.7639C23.2161 13.6531 23.0658 13.5908 22.9091 13.5908H1.09091C0.93419 13.5908 0.78389 13.6531 0.673073 13.7639C0.562256 13.8747 0.5 14.025 0.5 14.1817C0.5 14.3384 0.562256 14.4887 0.673073 14.5996C0.78389 14.7104 0.93419 14.7726 1.09091 14.7726H22.9091C23.0658 14.7726 23.2161 14.7104 23.3269 14.5996L23.6805 14.9531Z" fill="#FFFFFF" stroke="#FFFFFF"/>
<path d="M1.09091 17.9546H22.9091C23.0658 17.9546 23.2161 18.0168 23.3269 18.1277C23.4377 18.2385 23.5 18.3888 23.5 18.5455C23.5 18.7022 23.4377 18.8525 23.3269 18.9633C23.2161 19.0742 23.0658 19.1364 22.9091 19.1364H1.09091C0.934189 19.1364 0.78389 19.0742 0.673074 18.9633C0.562257 18.8525 0.5 18.7022 0.5 18.5455C0.5 18.3888 0.562257 18.2385 0.673073 18.1277C0.78389 18.0168 0.934189 17.9546 1.09091 17.9546Z" fill="#FFFFFF" stroke="#FFFFFF"/>
<path d="M1.09091 22.3184H16.3636C16.5204 22.3184 16.6707 22.3806 16.7815 22.4914C16.8923 22.6022 16.9545 22.7525 16.9545 22.9093C16.9545 23.066 16.8923 23.2163 16.7815 23.3271C16.6707 23.4379 16.5204 23.5002 16.3636 23.5002H1.09091C0.934189 23.5002 0.783889 23.4379 0.673073 23.3271C0.562257 23.2163 0.5 23.066 0.5 22.9093C0.5 22.7525 0.562257 22.6022 0.673073 22.4914C0.783889 22.3806 0.934189 22.3184 1.09091 22.3184Z" fill="#FFFFFF" stroke="#FFFFFF"/>
</svg>
