<svg width="24" height="24" viewBox="0 0 24 24" fill="none" xmlns="http://www.w3.org/2000/svg">
<path fill-rule="evenodd" clip-rule="evenodd" d="M20.0402 4.49654H19.0372V3.88423C19.0363 3.39491 18.9277 2.91247 18.72 2.47474C18.5122 2.03702 18.2109 1.65592 17.8397 1.36135C17.4686 1.06678 17.0376 0.866745 16.5806 0.776941C16.1237 0.687137 15.6532 0.710006 15.206 0.843754L3.72239 4.29596C3.55304 4.35167 3.40077 4.45367 3.2811 4.59156C2.62692 4.75929 2.04509 5.15315 1.62871 5.71012C1.21232 6.26708 0.985446 6.95496 0.984375 7.6637V20.3323C0.984375 21.1723 1.30137 21.9779 1.86563 22.5719C2.4299 23.1658 3.1952 23.4995 3.99318 23.4995H20.0402C20.8381 23.4995 21.6034 23.1658 22.1677 22.5719C22.732 21.9779 23.049 21.1723 23.049 20.3323V7.6637C23.049 6.82372 22.732 6.01814 22.1677 5.42418C21.6034 4.83023 20.8381 4.49654 20.0402 4.49654ZM15.7576 2.87074C15.9098 2.8257 16.0699 2.81915 16.2249 2.85163C16.3799 2.8841 16.5254 2.95467 16.6496 3.05759C16.7737 3.16051 16.8731 3.29286 16.9394 3.44385C17.0057 3.59485 17.0373 3.76021 17.0314 3.92646V4.53877H10.3719L15.7576 2.87074ZM21.0431 15.0537H18.0343C17.7683 15.0537 17.5132 14.9425 17.3251 14.7445C17.137 14.5465 17.0314 14.278 17.0314 13.998C17.0314 13.718 17.137 13.4495 17.3251 13.2515C17.5132 13.0535 17.7683 12.9423 18.0343 12.9423H21.0431V15.0537ZM21.0431 10.8309H18.1847C17.4625 10.8114 16.7565 11.0582 16.1888 11.5286C15.6211 11.9989 15.2274 12.6633 15.0756 13.4068C14.9929 13.8649 15.0074 14.3365 15.1178 14.788C15.2283 15.2396 15.4322 15.6598 15.7148 16.0188C15.9974 16.3779 16.3519 16.6668 16.7528 16.8649C17.1538 17.0631 17.5913 17.1656 18.0343 17.1652H21.0431V20.3323C21.0431 20.6123 20.9374 20.8809 20.7493 21.0788C20.5613 21.2768 20.3062 21.3881 20.0402 21.3881H3.99318C3.72719 21.3881 3.47209 21.2768 3.284 21.0788C3.09591 20.8809 2.99025 20.6123 2.99025 20.3323V7.6637C2.99025 7.38371 3.09591 7.11518 3.284 6.9172C3.47209 6.71921 3.72719 6.60798 3.99318 6.60798H20.0402C20.3062 6.60798 20.5613 6.71921 20.7493 6.9172C20.9374 7.11518 21.0431 7.38371 21.0431 7.6637V10.8309Z" fill="#316bce"/>
</svg>
