<svg width="73" height="32" viewBox="0 0 44 19" fill="none" xmlns="http://www.w3.org/2000/svg">
<path d="M0.872 19C0.698667 19 0.551333 18.948 0.43 18.844C0.326 18.7227 0.274 18.5753 0.274 18.402V17.622C0.274 17.2233 0.490667 16.842 0.924 16.478L6.592 10.836C7.87467 9.744 8.75867 8.85133 9.244 8.158C9.72933 7.46467 9.972 6.728 9.972 5.948C9.972 4.92533 9.686 4.128 9.114 3.556C8.542 2.96667 7.71 2.672 6.618 2.672C5.578 2.672 4.75467 2.97533 4.148 3.582C3.54133 4.18867 3.16867 5.00333 3.03 6.026C2.99533 6.21667 2.90867 6.364 2.77 6.468C2.63133 6.572 2.49267 6.624 2.354 6.624H1.106C0.95 6.624 0.82 6.572 0.716 6.468C0.612 6.364 0.56 6.24267 0.56 6.104C0.594667 5.18533 0.837333 4.30133 1.288 3.452C1.756 2.58533 2.44067 1.88333 3.342 1.346C4.24333 0.791333 5.33533 0.513999 6.618 0.513999C8.55933 0.513999 10.0153 1.02533 10.986 2.048C11.974 3.05333 12.468 4.336 12.468 5.896C12.468 6.988 12.1993 7.976 11.662 8.86C11.142 9.72667 10.3187 10.6453 9.192 11.616L4.07 16.816H12.26C12.4507 16.816 12.598 16.868 12.702 16.972C12.806 17.076 12.858 17.2233 12.858 17.414V18.402C12.858 18.5753 12.7973 18.7227 12.676 18.844C12.572 18.948 12.4333 19 12.26 19H0.872ZM21.4473 18.142C21.274 18.142 21.1267 18.09 21.0053 17.986C20.9013 17.8647 20.8493 17.7173 20.8493 17.544V12.11H15.4673C15.294 12.11 15.1467 12.058 15.0253 11.954C14.9213 11.8327 14.8693 11.6853 14.8693 11.512V10.732C14.8693 10.5587 14.9213 10.42 15.0253 10.316C15.1467 10.1947 15.294 10.134 15.4673 10.134H20.8493V4.856C20.8493 4.66533 20.9013 4.518 21.0053 4.414C21.1267 4.31 21.274 4.258 21.4473 4.258H22.2793C22.47 4.258 22.6173 4.31 22.7213 4.414C22.8253 4.518 22.8773 4.66533 22.8773 4.856V10.134H28.2593C28.4327 10.134 28.5713 10.1947 28.6753 10.316C28.7967 10.42 28.8573 10.5587 28.8573 10.732V11.512C28.8573 11.6853 28.7967 11.8327 28.6753 11.954C28.5713 12.058 28.4327 12.11 28.2593 12.11H22.8773V17.544C22.8773 17.7173 22.8167 17.8647 22.6953 17.986C22.5913 18.09 22.4527 18.142 22.2793 18.142H21.4473ZM31.163 19C30.9897 19 30.8423 18.948 30.721 18.844C30.617 18.7227 30.565 18.5753 30.565 18.402V17.622C30.565 17.2233 30.7817 16.842 31.215 16.478L36.883 10.836C38.1657 9.744 39.0497 8.85133 39.535 8.158C40.0203 7.46467 40.263 6.728 40.263 5.948C40.263 4.92533 39.977 4.128 39.405 3.556C38.833 2.96667 38.001 2.672 36.909 2.672C35.869 2.672 35.0457 2.97533 34.439 3.582C33.8323 4.18867 33.4597 5.00333 33.321 6.026C33.2863 6.21667 33.1997 6.364 33.061 6.468C32.9223 6.572 32.7837 6.624 32.645 6.624H31.397C31.241 6.624 31.111 6.572 31.007 6.468C30.903 6.364 30.851 6.24267 30.851 6.104C30.8857 5.18533 31.1283 4.30133 31.579 3.452C32.047 2.58533 32.7317 1.88333 33.633 1.346C34.5343 0.791333 35.6263 0.513999 36.909 0.513999C38.8503 0.513999 40.3063 1.02533 41.277 2.048C42.265 3.05333 42.759 4.336 42.759 5.896C42.759 6.988 42.4903 7.976 41.953 8.86C41.433 9.72667 40.6097 10.6453 39.483 11.616L34.361 16.816H42.551C42.7417 16.816 42.889 16.868 42.993 16.972C43.097 17.076 43.149 17.2233 43.149 17.414V18.402C43.149 18.5753 43.0884 18.7227 42.967 18.844C42.863 18.948 42.7244 19 42.551 19H31.163Z" fill="#FFFFFF"/>
</svg>
