<svg width="25" height="16" viewBox="0 0 25 16" fill="none" xmlns="http://www.w3.org/2000/svg">
<path fill-rule="evenodd" clip-rule="evenodd" d="M0.488281 3.62166C0.488281 2.67777 0.863237 1.77255 1.53066 1.10513C2.19809 0.4377 3.10331 0.0627441 4.04719 0.0627441H8.79241C9.73629 0.0627441 10.6415 0.4377 11.3089 1.10513C11.9764 1.77255 12.3513 2.67777 12.3513 3.62166V8.36687C12.3513 9.31075 11.9764 10.216 11.3089 10.8834C10.6415 11.5508 9.73629 11.9258 8.79241 11.9258H4.04719C3.10331 11.9258 2.19809 11.5508 1.53066 10.8834C0.863237 10.216 0.488281 9.31075 0.488281 8.36687V3.62166ZM4.04719 2.43535C3.73257 2.43535 3.43082 2.56034 3.20835 2.78281C2.98587 3.00529 2.86089 3.30703 2.86089 3.62166V8.36687C2.86089 8.6815 2.98587 8.98324 3.20835 9.20571C3.43082 9.42819 3.73257 9.55317 4.04719 9.55317H8.79241C9.10704 9.55317 9.40878 9.42819 9.63125 9.20571C9.85373 8.98324 9.97871 8.6815 9.97871 8.36687V3.62166C9.97871 3.30703 9.85373 3.00529 9.63125 2.78281C9.40878 2.56034 9.10704 2.43535 8.79241 2.43535H4.04719Z" fill="#0061FF"/>
<path fill-rule="evenodd" clip-rule="evenodd" d="M14.7227 3.62185C14.7227 3.30722 14.8476 3.00548 15.0701 2.78301C15.2926 2.56053 15.5943 2.43555 15.909 2.43555H23.0268C23.3414 2.43555 23.6432 2.56053 23.8656 2.78301C24.0881 3.00548 24.2131 3.30722 24.2131 3.62185C24.2131 3.93648 24.0881 4.23822 23.8656 4.46069C23.6432 4.68317 23.3414 4.80815 23.0268 4.80815H15.909C15.5943 4.80815 15.2926 4.68317 15.0701 4.46069C14.8476 4.23822 14.7227 3.93648 14.7227 3.62185Z" fill="#0061FF"/>
<path fill-rule="evenodd" clip-rule="evenodd" d="M14.7227 8.36721C14.7227 8.05258 14.8476 7.75084 15.0701 7.52837C15.2926 7.30589 15.5943 7.18091 15.909 7.18091H20.6542C20.9688 7.18091 21.2705 7.30589 21.493 7.52837C21.7155 7.75084 21.8405 8.05258 21.8405 8.36721C21.8405 8.68184 21.7155 8.98358 21.493 9.20606C21.2705 9.42853 20.9688 9.55352 20.6542 9.55352H15.909C15.5943 9.55352 15.2926 9.42853 15.0701 9.20606C14.8476 8.98358 14.7227 8.68184 14.7227 8.36721Z" fill="#0061FF"/>
</svg>
