<svg width="43" height="42" viewBox="0 0 43 42" fill="none" xmlns="http://www.w3.org/2000/svg">
<path fill-rule="evenodd" clip-rule="evenodd" d="M21.5018 0C10.1466 0 0.941406 9.2052 0.941406 20.5604C0.941406 31.9156 10.1466 41.1208 21.5018 41.1208C32.857 41.1208 42.0622 31.9156 42.0622 20.5604C42.0622 9.2052 32.857 0 21.5018 0ZM30.0685 13.4926C31.0121 13.7515 31.7553 14.5145 32.0075 15.4834C32.4658 17.2395 32.4658 20.9035 32.4658 20.9035C32.4658 20.9035 32.4658 24.5673 32.0075 26.3235C31.7553 27.2924 31.0121 28.0554 30.0685 28.3145C28.3583 28.7849 21.5003 28.7849 21.5003 28.7849C21.5003 28.7849 14.6422 28.7849 12.9319 28.3145C11.9883 28.0554 11.2451 27.2924 10.9929 26.3235C10.5347 24.5673 10.5347 20.9035 10.5347 20.9035C10.5347 20.9035 10.5347 17.2395 10.9929 15.4834C11.2451 14.5145 11.9883 13.7515 12.9319 13.4926C14.6422 13.022 21.5003 13.022 21.5003 13.022C21.5003 13.022 28.3583 13.022 30.0685 13.4926Z" fill="#3188ED"/>
<path d="M19.4453 24.6728V17.8193L24.9281 21.2462L19.4453 24.6728Z" fill="#3188ED"/>
</svg>
