<svg width="42" height="42" viewBox="0 0 42 42" fill="none" xmlns="http://www.w3.org/2000/svg">
<path fill-rule="evenodd" clip-rule="evenodd" d="M21.4393 0C10.0841 0 0.878906 9.2052 0.878906 20.5604C0.878906 31.9156 10.0841 41.1208 21.4393 41.1208C32.7945 41.1208 41.9997 31.9156 41.9997 20.5604C41.9997 9.2052 32.7945 0 21.4393 0ZM16.9151 9.66147C18.0848 9.60824 18.4585 9.59521 21.4366 9.59521H21.4332C24.4122 9.59521 24.7846 9.60824 25.9543 9.66147C27.1216 9.71492 27.9189 9.89974 28.618 10.1709C29.3399 10.4508 29.9499 10.8254 30.5598 11.4354C31.1698 12.0449 31.5444 12.6567 31.8254 13.3779C32.095 14.0751 32.2801 14.872 32.3349 16.0394C32.3874 17.209 32.4011 17.5828 32.4011 20.5609C32.4011 23.539 32.3874 23.9118 32.3349 25.0815C32.2801 26.2484 32.095 27.0455 31.8254 27.7429C31.5444 28.4639 31.1698 29.0757 30.5598 29.6852C29.9505 30.2952 29.3397 30.6707 28.6187 30.9508C27.921 31.222 27.1232 31.4068 25.9558 31.4603C24.7862 31.5135 24.4136 31.5265 21.4353 31.5265C18.4574 31.5265 18.0839 31.5135 16.9142 31.4603C15.7471 31.4068 14.95 31.222 14.2523 30.9508C13.5315 30.6707 12.9197 30.2952 12.3105 29.6852C11.7007 29.0757 11.3261 28.4639 11.0458 27.7427C10.7748 27.0455 10.59 26.2486 10.5363 25.0812C10.4833 23.9116 10.4701 23.539 10.4701 20.5609C10.4701 17.5828 10.4838 17.2088 10.5361 16.0391C10.5886 14.8722 10.7737 14.0751 11.0455 13.3777C11.3265 12.6567 11.7012 12.0449 12.3111 11.4354C12.9207 10.8257 13.5324 10.451 14.2537 10.1709C14.9509 9.89974 15.7477 9.71492 16.9151 9.66147Z" fill="#3188ED"/>
<path fill-rule="evenodd" clip-rule="evenodd" d="M20.4551 11.5711C20.6461 11.5708 20.8515 11.5709 21.0733 11.571L21.4388 11.5711C24.3666 11.5711 24.7136 11.5816 25.8698 11.6342C26.939 11.683 27.5192 11.8617 27.9058 12.0118C28.4175 12.2105 28.7823 12.4481 29.1659 12.8319C29.5497 13.2157 29.7873 13.5812 29.9865 14.093C30.1366 14.4791 30.3155 15.0593 30.3641 16.1285C30.4167 17.2844 30.4281 17.6317 30.4281 20.5581C30.4281 23.4846 30.4167 23.8318 30.3641 24.9878C30.3152 26.057 30.1366 26.6372 29.9865 27.0233C29.7877 27.535 29.5497 27.8994 29.1659 28.283C28.7821 28.6668 28.4177 28.9044 27.9058 29.1031C27.5197 29.2539 26.939 29.4321 25.8698 29.481C24.7138 29.5335 24.3666 29.5449 21.4388 29.5449C18.5107 29.5449 18.1637 29.5335 17.0077 29.481C15.9386 29.4316 15.3583 29.253 14.9715 29.1029C14.4598 28.9041 14.0943 28.6665 13.7105 28.2828C13.3267 27.899 13.0891 27.5343 12.8899 27.0224C12.7398 26.6363 12.5609 26.056 12.5123 24.9869C12.4597 23.8309 12.4492 23.4837 12.4492 20.5554C12.4492 17.6271 12.4597 17.2817 12.5123 16.1257C12.5612 15.0566 12.7398 14.4763 12.8899 14.0898C13.0887 13.578 13.3267 13.2125 13.7105 12.8287C14.0943 12.4449 14.4598 12.2073 14.9715 12.0081C15.3581 11.8573 15.9386 11.6792 17.0077 11.63C18.0193 11.5844 18.4113 11.5706 20.4551 11.5684V11.5711ZM27.2953 13.3923C26.5688 13.3923 25.9794 13.981 25.9794 14.7077C25.9794 15.4342 26.5688 16.0236 27.2953 16.0236C28.0218 16.0236 28.6112 15.4342 28.6112 14.7077C28.6112 13.9812 28.0218 13.3918 27.2953 13.3918V13.3923ZM15.8081 20.5595C15.8081 17.4497 18.3294 14.9283 21.4392 14.9282C24.5491 14.9282 27.0698 17.4496 27.0698 20.5595C27.0698 23.6694 24.5493 26.1897 21.4394 26.1897C18.3295 26.1897 15.8081 23.6694 15.8081 20.5595Z" fill="#3188ED"/>
<path d="M21.4404 16.9053C23.459 16.9053 25.0956 18.5417 25.0956 20.5605C25.0956 22.5791 23.459 24.2157 21.4404 24.2157C19.4216 24.2157 17.7852 22.5791 17.7852 20.5605C17.7852 18.5417 19.4216 16.9053 21.4404 16.9053Z" fill="#3188ED"/>
</svg>
