<svg width="42" height="42" viewBox="0 0 36 36" fill="none" xmlns="http://www.w3.org/2000/svg">
<path fill-rule="evenodd" clip-rule="evenodd" d="M35.6972 17.5791C35.6972 27.2586 27.8504 35.1054 18.1708 35.1054C8.49133 35.1054 0.644531 27.2586 0.644531 17.5791C0.644531 7.89953 8.49133 0.0527344 18.1708 0.0527344C27.8504 0.0527344 35.6972 7.89953 35.6972 17.5791ZM12.3788 15.9741C10.6232 16.7407 8.8192 17.5283 7.16967 18.4369L7.16955 18.437C6.30821 19.0676 7.4531 19.5137 8.52708 19.9321C8.69783 19.9986 8.86677 20.0644 9.02559 20.1302C9.15774 20.1708 9.29214 20.2136 9.42833 20.257C10.6228 20.6376 11.9547 21.0619 13.1143 20.4236C15.0193 19.3293 16.817 18.0642 18.6133 16.8C19.2019 16.3858 19.7902 15.9717 20.3822 15.5638C20.4099 15.5461 20.4412 15.5258 20.4754 15.5036C20.9797 15.1767 22.1139 14.4416 21.6944 15.4546C20.7023 16.5394 19.6398 17.4998 18.5714 18.4654C17.8514 19.1161 17.1288 19.7692 16.4233 20.4644C15.8089 20.9637 15.1709 21.9676 15.8589 22.6666C17.4434 23.7759 19.0528 24.8583 20.6611 25.9401C21.1846 26.2921 21.7079 26.6441 22.2303 26.9969C23.1155 27.7037 24.499 27.132 24.6936 26.0276C24.7802 25.5196 24.8671 25.0116 24.954 24.5036C25.4342 21.6959 25.9145 18.8873 26.3389 16.0705C26.3966 15.6286 26.462 15.1868 26.5274 14.7448C26.6859 13.6734 26.8447 12.6007 26.8942 11.5236C26.7664 10.4487 25.4631 10.685 24.7378 10.9267C21.0096 12.3453 17.3187 13.8691 13.6424 15.4197C13.226 15.6042 12.8038 15.7885 12.3788 15.9741Z" fill="#3188ED"/>
</svg>
