<svg width="22" height="19" viewBox="0 0 22 19" fill="none" xmlns="http://www.w3.org/2000/svg">
<g opacity="0.5">
<path d="M19 0H3C2.20435 0 1.44129 0.31607 0.87868 0.87868C0.31607 1.44129 0 2.20435 0 3V12C0 12.394 0.0775973 12.7841 0.228361 13.1481C0.379125 13.512 0.600104 13.8427 0.87868 14.1213C1.15726 14.3999 1.48797 14.6209 1.85195 14.7716C2.21593 14.9224 2.60603 15 3 15H4.5L6.8 18.06C6.93972 18.2463 7.1209 18.3975 7.32918 18.5016C7.53746 18.6058 7.76713 18.66 8 18.66C8.23287 18.66 8.46254 18.6058 8.67082 18.5016C8.8791 18.3975 9.06028 18.2463 9.2 18.06L11.5 15H19C19.7956 15 20.5587 14.6839 21.1213 14.1213C21.6839 13.5587 22 12.7956 22 12V3C22 2.60603 21.9224 2.21593 21.7716 1.85195C21.6209 1.48797 21.3999 1.15726 21.1213 0.87868C20.8427 0.600104 20.512 0.379125 20.1481 0.228361C19.7841 0.0775973 19.394 0 19 0ZM20 12C20 12.2652 19.8946 12.5196 19.7071 12.7071C19.5196 12.8946 19.2652 13 19 13H10.5L8 16.33L5.5 13H3C2.73478 13 2.48043 12.8946 2.29289 12.7071C2.10536 12.5196 2 12.2652 2 12V3C2 2.73478 2.10536 2.48043 2.29289 2.29289C2.48043 2.10536 2.73478 2 3 2H19C19.2652 2 19.5196 2.10536 19.7071 2.29289C19.8946 2.48043 20 2.73478 20 3V12Z" fill="#1D1D1D"/>
<path d="M5 16H10C10.2652 16 10.5196 15.8946 10.7071 15.7071C10.8946 15.5196 11 15.2652 11 15C11 14.7348 10.8946 14.4804 10.7071 14.2929C10.5196 14.1054 10.2652 14 10 14H5C4.73478 14 4.48043 14.1054 4.29289 14.2929C4.10536 14.4804 4 14.7348 4 15C4 15.2652 4.10536 15.5196 4.29289 15.7071C4.48043 15.8946 4.73478 16 5 16Z" fill="#1D1D1D"/>
<path d="M16 8H5C4.73478 8 4.48043 8.10536 4.29289 8.29289C4.10536 8.48043 4 8.73478 4 9C4 9.26522 4.10536 9.51957 4.29289 9.70711C4.48043 9.89464 4.73478 10 5 10H16C16.2652 10 16.5196 9.89464 16.7071 9.70711C16.8946 9.51957 17 9.26522 17 9C17 8.73478 16.8946 8.48043 16.7071 8.29289C16.5196 8.10536 16.2652 8 16 8Z" fill="#1D1D1D"/>
</g>
</svg>
