<svg width="42" height="42" viewBox="0 0 36 36" fill="none" xmlns="http://www.w3.org/2000/svg">
<path fill-rule="evenodd" clip-rule="evenodd" d="M35.6464 17.5791C35.6464 27.2586 27.7996 35.1054 18.1201 35.1054C8.44055 35.1054 0.59375 27.2586 0.59375 17.5791C0.59375 7.89953 8.44055 0.0527344 18.1201 0.0527344C27.7996 0.0527344 35.6464 7.89953 35.6464 17.5791ZM8.91399 11.1779C9.12819 11.3755 9.23758 11.6656 9.20855 11.9592V22.5298C9.2721 22.9111 9.15465 23.3006 8.89217 23.579L6.4375 26.6263V27.0281H13.3978V26.6263L10.9432 23.579C10.6788 23.3011 10.554 22.9141 10.605 22.5298V13.388L16.7144 27.0281H17.4235L22.671 13.388V24.2599C22.671 24.5501 22.671 24.6059 22.4856 24.7957L20.5982 26.6709V27.0728H29.7623V26.6709L27.9404 24.8403C27.7795 24.7149 27.6998 24.5087 27.7331 24.3046V10.8542C27.6998 10.6501 27.7795 10.4438 27.9404 10.3184L29.8059 8.48778V8.08594H23.3474L18.7436 19.8397L13.5069 8.08594H6.73206V8.48778L8.91399 11.1779Z" fill="#3188ED"/>
</svg>
