<svg width="42" height="42" viewBox="0 0 36 36" fill="none" xmlns="http://www.w3.org/2000/svg">
<path fill-rule="evenodd" clip-rule="evenodd" d="M17.6279 0C7.94836 0 0.101562 7.8468 0.101562 17.5263C0.101562 27.2058 7.94836 35.0526 17.6279 35.0526C27.3074 35.0526 35.1542 27.2058 35.1542 17.5263C35.1542 7.8468 27.3074 0 17.6279 0ZM17.1391 14.8524L17.1024 14.2459C16.992 12.6741 17.9605 11.2384 19.4929 10.6815C20.0568 10.4835 21.0131 10.4587 21.6383 10.632C21.8835 10.7063 22.3493 10.9538 22.6803 11.1766L23.281 11.585L23.943 11.3746C24.3108 11.2632 24.8012 11.0776 25.0219 10.9538C25.2303 10.8424 25.4142 10.7805 25.4142 10.8176C25.4142 11.028 24.9606 11.7459 24.5805 12.1419C24.0656 12.6989 24.2127 12.7484 25.2548 12.3771C25.88 12.1667 25.8923 12.1667 25.7697 12.4018C25.6961 12.5256 25.3161 12.9588 24.9115 13.3548C24.225 14.0355 24.1882 14.1098 24.1882 14.6791C24.1882 15.5579 23.7714 17.3896 23.3546 18.3921C22.5823 20.2733 20.9272 22.2164 19.2722 23.1942C16.943 24.568 13.8414 24.9145 11.2301 24.11C10.3597 23.8378 8.8641 23.1447 8.8641 23.0209C8.8641 22.9838 9.3177 22.9343 9.86937 22.9219C11.0217 22.8971 12.1741 22.5754 13.1549 22.006L13.8169 21.61L13.0568 21.3501C11.978 20.9788 11.0095 20.1248 10.7643 19.3203C10.6907 19.0604 10.7153 19.048 11.4018 19.048L12.1128 19.0357L11.5121 18.751C10.8011 18.3921 10.1513 17.7856 9.83259 17.1668C9.59966 16.7213 9.30544 15.595 9.39125 15.5084C9.41577 15.4712 9.67322 15.5455 9.96744 15.6445C10.8133 15.9539 10.9237 15.8796 10.4333 15.3598C9.51385 14.4192 9.23188 13.0207 9.67322 11.6964L9.88163 11.1023L10.6907 11.9068C12.3457 13.5281 14.295 14.4935 16.5262 14.7781L17.1391 14.8524Z" fill="#3188ED"/>
</svg>
