<svg width="52" height="52" viewBox="0 0 52 52" fill="none" xmlns="http://www.w3.org/2000/svg">
<circle cx="26" cy="26" r="25" stroke="#316BCE" stroke-width="2"/>
<path d="M27.5215 31.1953H24.4629L23.5488 13.3008H28.418L27.5215 31.1953ZM23.3379 36.8027C23.3379 35.9355 23.5664 35.2793 24.0234 34.834C24.4805 34.377 25.1309 34.1484 25.9746 34.1484C26.8066 34.1484 27.4453 34.3828 27.8906 34.8516C28.3359 35.3203 28.5586 35.9707 28.5586 36.8027C28.5586 37.6348 28.3301 38.2969 27.873 38.7891C27.4277 39.2695 26.7949 39.5098 25.9746 39.5098C25.1426 39.5098 24.4922 39.2754 24.0234 38.8066C23.5664 38.3379 23.3379 37.6699 23.3379 36.8027Z" fill="#316BCE"/>
</svg>
