<svg width="25" height="24" viewBox="0 0 25 24" fill="none" xmlns="http://www.w3.org/2000/svg">
<path d="M11.7945 23.548C11.5011 23.548 11.2518 23.46 11.0465 23.284C10.8705 23.0787 10.7825 22.8293 10.7825 22.536V13.34H1.67445C1.38112 13.34 1.13179 13.252 0.926453 13.076C0.750453 12.8707 0.662453 12.6213 0.662453 12.328V11.008C0.662453 10.7147 0.750453 10.48 0.926453 10.304C1.13179 10.0987 1.38112 9.996 1.67445 9.996H10.7825V1.064C10.7825 0.741333 10.8705 0.491999 11.0465 0.315998C11.2518 0.139998 11.5011 0.0519986 11.7945 0.0519986H13.2025C13.5251 0.0519986 13.7745 0.139998 13.9505 0.315998C14.1265 0.491999 14.2145 0.741333 14.2145 1.064V9.996H23.3225C23.6158 9.996 23.8505 10.0987 24.0265 10.304C24.2318 10.48 24.3345 10.7147 24.3345 11.008V12.328C24.3345 12.6213 24.2318 12.8707 24.0265 13.076C23.8505 13.252 23.6158 13.34 23.3225 13.34H14.2145V22.536C14.2145 22.8293 14.1118 23.0787 13.9065 23.284C13.7305 23.46 13.4958 23.548 13.2025 23.548H11.7945Z" fill="#316bce"/>
</svg>
