<svg width="70" height="70" viewBox="0 0 70 70" fill="none" xmlns="http://www.w3.org/2000/svg">
<circle cx="35" cy="35" r="35" fill="#0061FF"/>
<path fill-rule="evenodd" clip-rule="evenodd" d="M41.0932 22.6732C40.7359 22.1577 40.2593 21.7364 39.704 21.4451C39.1487 21.1537 38.5313 21.001 37.9044 21H27.2229C26.1915 21 25.2023 21.41 24.473 22.1397C23.7437 22.8694 23.334 23.8591 23.334 24.8911V45.6435C23.334 46.6755 23.7437 47.6652 24.473 48.395C25.2023 49.1247 26.1915 49.5346 27.2229 49.5346H42.7784C43.8098 49.5346 44.799 49.1247 45.5283 48.395C46.2576 47.6652 46.6673 46.6755 46.6673 45.6435V31.895C46.6654 31.1016 46.4212 30.3277 45.9673 29.6771L41.0932 22.6732ZM44.0747 45.6435C44.0747 45.9875 43.9382 46.3174 43.6951 46.5607C43.4519 46.8039 43.1222 46.9406 42.7784 46.9406H27.2229C26.8791 46.9406 26.5494 46.8039 26.3063 46.5607C26.0632 46.3174 25.9266 45.9875 25.9266 45.6435V24.8911C25.9266 24.5471 26.0632 24.2172 26.3063 23.9739C26.5494 23.7307 26.8791 23.5941 27.2229 23.5941H37.9044C38.1133 23.5944 38.3192 23.6453 38.5042 23.7424C38.6893 23.8395 38.8482 23.98 38.9673 24.1518L43.8414 31.1557C43.9927 31.3726 44.0741 31.6306 44.0747 31.895V45.6435Z" fill="white"/>
<path d="M42.0711 32.6733H27.9297C27.7422 32.6733 27.5624 32.81 27.4298 33.0532C27.2972 33.2965 27.2227 33.6264 27.2227 33.9704C27.2227 34.3144 27.2972 34.6443 27.4298 34.8876C27.5624 35.1308 27.7422 35.2675 27.9297 35.2675H42.0711C42.2587 35.2675 42.4385 35.1308 42.5711 34.8876C42.7037 34.6443 42.7782 34.3144 42.7782 33.9704C42.7782 33.6264 42.7037 33.2965 42.5711 33.0532C42.4385 32.81 42.2587 32.6733 42.0711 32.6733Z" fill="white"/>
<path d="M42.0711 36.564H27.9297C27.7422 36.564 27.5624 36.7006 27.4298 36.9439C27.2972 37.1871 27.2227 37.517 27.2227 37.861C27.2227 38.205 27.2972 38.535 27.4298 38.7782C27.5624 39.0215 27.7422 39.1581 27.9297 39.1581H42.0711C42.2587 39.1581 42.4385 39.0215 42.5711 38.7782C42.7037 38.535 42.7782 38.205 42.7782 37.861C42.7782 37.517 42.7037 37.1871 42.5711 36.9439C42.4385 36.7006 42.2587 36.564 42.0711 36.564Z" fill="white"/>
<path d="M42.0711 40.4551H27.9297C27.7422 40.4551 27.5624 40.5917 27.4298 40.835C27.2972 41.0782 27.2227 41.4081 27.2227 41.7521C27.2227 42.0962 27.2972 42.4261 27.4298 42.6693C27.5624 42.9126 27.7422 43.0492 27.9297 43.0492H42.0711C42.2587 43.0492 42.4385 42.9126 42.5711 42.6693C42.7037 42.4261 42.7782 42.0962 42.7782 41.7521C42.7782 41.4081 42.7037 41.0782 42.5711 40.835C42.4385 40.5917 42.2587 40.4551 42.0711 40.4551Z" fill="white"/>
</svg>
