<svg width="70" height="70" viewBox="0 0 70 70" fill="none" xmlns="http://www.w3.org/2000/svg">
<circle cx="35" cy="35" r="35" fill="#0061FF"/>
<path d="M49.7882 26.4473H20.2135C19.7526 26.4473 19.4453 26.0438 19.4453 25.4386V22.0088C19.4453 21.4035 19.7526 21 20.2135 21H49.7882C50.2492 21 50.5564 21.4035 50.5564 22.0088V25.4386C50.5564 26.0438 50.1723 26.4473 49.7882 26.4473Z" stroke="white" stroke-width="3" stroke-miterlimit="10" stroke-linecap="round"/>
<path d="M48.3767 49.405H21.5434C21.0767 49.405 20.7656 49.0937 20.7656 48.6267V26.7588H49.1545V48.6267C49.1545 49.0937 48.7656 49.405 48.3767 49.405Z" stroke="white" stroke-width="3" stroke-miterlimit="10" stroke-linecap="round"/>
<path d="M37.334 34.1514H45.6562" stroke="white" stroke-width="2" stroke-miterlimit="10" stroke-linecap="round"/>
<path d="M37.334 38.1206H45.6562" stroke="white" stroke-width="2" stroke-miterlimit="10" stroke-linecap="round"/>
<path d="M37.334 42.0898H45.6562" stroke="white" stroke-width="2" stroke-miterlimit="10" stroke-linecap="round"/>
<path d="M29.4006 37.7315L28.934 33.6846C28.934 33.529 28.8562 33.4512 28.7007 33.4512C25.9784 33.6068 23.8784 36.175 24.5007 38.9767C24.8895 40.6888 26.2895 42.0896 28.0007 42.4787C30.8784 43.1013 33.3673 41.0001 33.5229 38.3541C33.5229 38.1984 33.4451 38.1206 33.2895 38.1206L29.4006 37.7315Z" stroke="white" stroke-width="2" stroke-miterlimit="10" stroke-linecap="round"/>
</svg>
