<svg width="70" height="70" viewBox="0 0 70 70" fill="none" xmlns="http://www.w3.org/2000/svg">
<circle cx="35" cy="35" r="35" fill="#316bce"/>
<path fill-rule="evenodd" clip-rule="evenodd" d="M45.6439 24.6352H44.265V23.7928C44.2638 23.1197 44.1145 22.4561 43.8289 21.8539C43.5432 21.2518 43.129 20.7275 42.6187 20.3223C42.1084 19.9171 41.5159 19.6419 40.8876 19.5183C40.2594 19.3948 39.6125 19.4263 38.9977 19.6103L23.2096 24.3592C22.9768 24.4359 22.7675 24.5762 22.6029 24.7659C21.7035 24.9966 20.9036 25.5384 20.3312 26.3046C19.7587 27.0708 19.4468 28.0171 19.4453 28.992V46.4195C19.4453 47.575 19.8811 48.6832 20.6569 49.5003C21.4327 50.3174 22.4848 50.7764 23.5819 50.7764H45.6439C46.741 50.7764 47.7932 50.3174 48.569 49.5003C49.3447 48.6832 49.7805 47.575 49.7805 46.4195V28.992C49.7805 27.8365 49.3447 26.7283 48.569 25.9113C47.7932 25.0942 46.741 24.6352 45.6439 24.6352ZM39.7561 22.3986C39.9653 22.3367 40.1854 22.3277 40.3985 22.3724C40.6116 22.417 40.8117 22.5141 40.9824 22.6557C41.1531 22.7973 41.2897 22.9793 41.3809 23.187C41.4721 23.3948 41.5154 23.6222 41.5073 23.8509V24.6933H32.3516L39.7561 22.3986ZM47.0228 39.1581H42.8862C42.5205 39.1581 42.1698 39.0051 41.9112 38.7327C41.6526 38.4603 41.5073 38.0909 41.5073 37.7058C41.5073 37.3206 41.6526 36.9512 41.9112 36.6789C42.1698 36.4065 42.5205 36.2535 42.8862 36.2535H47.0228V39.1581ZM47.0228 33.3489H43.093C42.1001 33.3222 41.1295 33.6617 40.349 34.3087C39.5685 34.9558 39.0271 35.8697 38.8185 36.8925C38.7048 37.5226 38.7246 38.1714 38.8765 38.7925C39.0284 39.4137 39.3087 39.9918 39.6972 40.4857C40.0858 40.9796 40.5731 41.377 41.1244 41.6496C41.6756 41.9222 42.2772 42.0632 42.8862 42.0626H47.0228V46.4195C47.0228 46.8047 46.8775 47.1741 46.6189 47.4464C46.3603 47.7188 46.0096 47.8718 45.6439 47.8718H23.5819C23.2162 47.8718 22.8655 47.7188 22.6069 47.4464C22.3483 47.1741 22.2031 46.8047 22.2031 46.4195V28.992C22.2031 28.6069 22.3483 28.2375 22.6069 27.9651C22.8655 27.6928 23.2162 27.5398 23.5819 27.5398H45.6439C46.0096 27.5398 46.3603 27.6928 46.6189 27.9651C46.8775 28.2375 47.0228 28.6069 47.0228 28.992V33.3489Z" fill="white"/>
</svg>
