<svg width="70" height="70" viewBox="0 0 70 70" fill="none" xmlns="http://www.w3.org/2000/svg">
<circle cx="35" cy="35" r="35" fill="#316bce"/>
<path d="M35.3898 18.667C31.161 18.667 27.1055 20.3478 24.1153 23.3396C21.1252 26.3315 19.4453 30.3893 19.4453 34.6204V44.8762C19.4453 45.1784 19.5653 45.4682 19.7789 45.6819C19.9925 45.8957 20.2821 46.0157 20.5842 46.0157H27.4175C27.7196 46.0157 28.0093 45.8957 28.2229 45.6819C28.4364 45.4682 28.5564 45.1784 28.5564 44.8762V35.7599C28.5564 35.4577 28.4364 35.1679 28.2229 34.9542C28.0093 34.7405 27.7196 34.6204 27.4175 34.6204H21.7231C21.7231 30.9937 23.163 27.5156 25.726 24.9512C28.289 22.3867 31.7651 20.9461 35.3898 20.9461C39.0144 20.9461 42.4906 22.3867 45.0536 24.9512C47.6165 27.5156 49.0564 30.9937 49.0564 34.6204H43.362C43.0599 34.6204 42.7702 34.7405 42.5567 34.9542C42.3431 35.1679 42.2231 35.4577 42.2231 35.7599V44.8762C42.2231 45.1784 42.3431 45.4682 42.5567 45.6819C42.7702 45.8957 43.0599 46.0157 43.362 46.0157H49.0564V48.2948H36.5286V47.1552C36.5286 46.853 36.4087 46.5632 36.1951 46.3495C35.9815 46.1358 35.6918 46.0157 35.3898 46.0157C35.0877 46.0157 34.798 46.1358 34.5844 46.3495C34.3709 46.5632 34.2509 46.853 34.2509 47.1552V49.4343C34.2509 49.7365 34.3709 50.0264 34.5844 50.2401C34.798 50.4538 35.0877 50.5738 35.3898 50.5738H50.1953C50.4974 50.5738 50.787 50.4538 51.0006 50.2401C51.2142 50.0264 51.3342 49.7365 51.3342 49.4343V34.6204C51.3342 30.3893 49.6543 26.3315 46.6642 23.3396C43.674 20.3478 39.6185 18.667 35.3898 18.667ZM26.2786 36.8995V43.7366H21.7231V36.8995H26.2786ZM44.5009 36.8995H49.0564V43.7366H44.5009V36.8995Z" fill="white"/>
</svg>
