<svg width="70" height="70" viewBox="0 0 70 70" fill="none" xmlns="http://www.w3.org/2000/svg">
<circle cx="35" cy="35" r="35" fill="#0061FF"/>
<path fill-rule="evenodd" clip-rule="evenodd" d="M33.5181 30.9409C33.0976 32.3661 32.2433 33.6246 31.0741 34.541C32.5466 35.1278 33.8795 36 35.0002 37.0993C36.121 36 37.4539 35.1278 38.9264 34.541C37.7572 33.6246 36.9029 32.3661 36.4824 30.9409C36.062 29.5156 36.0964 27.9946 36.5808 26.5899C37.0652 25.1851 37.9756 23.9665 39.1849 23.104C40.3943 22.2414 41.8425 21.7778 43.3277 21.7778C44.8129 21.7778 46.2611 22.2414 47.4705 23.104C48.6799 23.9665 49.5902 25.1851 50.0746 26.5899C50.5591 27.9946 50.5935 29.5156 50.173 30.9409C49.7525 32.3661 48.8982 33.6246 47.729 34.541C49.9386 35.4215 51.8336 36.9445 53.1695 38.9134C54.5054 40.8822 55.2207 43.2066 55.2231 45.5863V46.7765C55.2231 47.0922 55.0978 47.3949 54.8747 47.6181C54.6517 47.8413 54.3491 47.9667 54.0336 47.9667C53.7181 47.9667 53.4156 47.8413 53.1925 47.6181C52.9694 47.3949 52.8441 47.0922 52.8441 46.7765V45.5863C52.8441 43.061 51.8414 40.639 50.0568 38.8534C48.2721 37.0677 45.8516 36.0645 43.3277 36.0645C40.8038 36.0645 38.3833 37.0677 36.5986 38.8534C36.5738 38.8782 36.5492 38.9032 36.5246 38.9283C37.854 40.894 38.5658 43.2126 38.5682 45.5863V46.7765C38.5682 47.0922 38.4429 47.3949 38.2198 47.6181C37.9967 47.8413 37.6941 47.9667 37.3787 47.9667C37.0632 47.9667 36.7606 47.8413 36.5375 47.6181C36.3144 47.3949 36.1891 47.0922 36.1891 46.7765V45.5863C36.1891 43.061 35.1865 40.639 33.4018 38.8534C31.6172 37.0677 29.1967 36.0645 26.6728 36.0645C24.1489 36.0645 21.7284 37.0677 19.9437 38.8534C18.159 40.639 17.1564 43.061 17.1564 45.5863V46.7765C17.1564 47.0922 17.0311 47.3949 16.808 47.6181C16.5849 47.8413 16.2824 47.9667 15.9669 47.9667C15.6514 47.9667 15.3488 47.8413 15.1258 47.6181C14.9027 47.3949 14.7773 47.0922 14.7773 46.7765V45.5863C14.7798 43.2066 15.4951 40.8822 16.831 38.9134C18.1669 36.9445 20.0619 35.4215 22.2715 34.541C21.1023 33.6246 20.2479 32.3661 19.8275 30.9409C19.407 29.5156 19.4414 27.9946 19.9258 26.5899C20.4103 25.1851 21.3206 23.9665 22.53 23.104C23.7394 22.2414 25.1876 21.7778 26.6728 21.7778C28.158 21.7778 29.6062 22.2414 30.8155 23.104C32.0249 23.9665 32.9353 25.1851 33.4197 26.5899C33.9041 27.9946 33.9385 29.5156 33.5181 30.9409ZM22.7165 26.2781C22.1937 27.0611 21.9146 27.9815 21.9146 28.9232C21.9146 30.1858 22.4159 31.3968 23.3082 32.2896C24.2006 33.1825 25.4108 33.6841 26.6728 33.6841C27.6138 33.6841 28.5338 33.4048 29.3163 32.8817C30.0987 32.3586 30.7086 31.615 31.0687 30.7451C31.4289 29.8751 31.5231 28.9179 31.3395 27.9944C31.1559 27.0708 30.7027 26.2225 30.0373 25.5567C29.3719 24.8909 28.524 24.4374 27.601 24.2537C26.6781 24.07 25.7213 24.1643 24.8519 24.5247C23.9825 24.885 23.2393 25.4952 22.7165 26.2781ZM38.5695 28.9232C38.5695 27.9815 38.8486 27.0611 39.3714 26.2781C39.8943 25.4952 40.6374 24.885 41.5068 24.5247C42.3763 24.1643 43.333 24.07 44.256 24.2537C45.179 24.4374 46.0268 24.8909 46.6923 25.5567C47.3577 26.2225 47.8109 27.0708 47.9945 27.9944C48.1781 28.9179 48.0838 29.8751 47.7237 30.7451C47.3636 31.615 46.7537 32.3586 45.9712 32.8817C45.1887 33.4048 44.2688 33.6841 43.3277 33.6841C42.0658 33.6841 40.8555 33.1825 39.9632 32.2896C39.0709 31.3968 38.5695 30.1858 38.5695 28.9232Z" fill="white"/>
</svg>
