<svg width="70" height="70" viewBox="0 0 70 70" fill="none" xmlns="http://www.w3.org/2000/svg">
<circle cx="35" cy="35" r="35" fill="#0061FF"/>
<path d="M45.7479 28.4988H41.7176V25.8104C41.7176 24.7409 41.293 23.7152 40.5372 22.9589C39.7813 22.2027 38.7562 21.7778 37.6873 21.7778H24.253C23.1841 21.7778 22.1589 22.2027 21.4031 22.9589C20.6473 23.7152 20.2227 24.7409 20.2227 25.8104V33.8756C20.2227 34.9451 20.6473 35.9708 21.4031 36.727C22.1589 37.4833 23.1841 37.9082 24.253 37.9082H26.3353L28.2833 40.0723V40.5562C28.2833 41.6257 28.7079 42.6514 29.4637 43.4077C30.2195 44.1639 31.2447 44.5888 32.3136 44.5888H37.0828L39.1113 46.8874C39.3004 47.1019 39.533 47.2738 39.7936 47.3914C40.0542 47.5091 40.3368 47.57 40.6227 47.57C40.9086 47.57 41.1912 47.5091 41.4518 47.3914C41.7124 47.2738 41.945 47.1019 42.1341 46.8874L44.1627 44.5888H45.7479C46.8168 44.5888 47.8419 44.1639 48.5978 43.4077C49.3536 42.6514 49.7782 41.6257 49.7782 40.5562V32.4911C49.7676 31.4286 49.3383 30.4132 48.5836 29.6656C47.8289 28.9181 46.8099 28.4987 45.7479 28.4988ZM24.253 35.2198C23.8967 35.2198 23.555 35.0782 23.303 34.8261C23.0511 34.574 22.9095 34.2321 22.9095 33.8756V25.8104C22.9095 25.4539 23.0511 25.112 23.303 24.8599C23.555 24.6078 23.8967 24.4662 24.253 24.4662H37.6873C38.0436 24.4662 38.3853 24.6078 38.6373 24.8599C38.8892 25.112 39.0307 25.4539 39.0307 25.8104V33.8756C39.0307 34.2321 38.8892 34.574 38.6373 34.8261C38.3853 35.0782 38.0436 35.2198 37.6873 35.2198H32.2195L29.8819 37.9082L27.5444 35.2198H24.253ZM47.0913 40.5965C47.0913 40.953 46.9498 41.295 46.6979 41.547C46.4459 41.7991 46.1042 41.9407 45.7479 41.9407H42.967L40.6294 44.7367L38.2918 41.9407H32.3136C31.9573 41.9407 31.6156 41.7991 31.3636 41.547C31.1117 41.295 30.9701 40.953 30.9701 40.5965C31.1242 40.4942 31.2642 40.3722 31.3866 40.2336L33.4152 37.935H37.6873C38.7562 37.935 39.7813 37.5102 40.5372 36.7539C41.293 35.9977 41.7176 34.972 41.7176 33.9025V31.2141H45.7479C46.1042 31.2141 46.4459 31.3557 46.6979 31.6078C46.9498 31.8599 47.0913 32.2018 47.0913 32.5583V40.5965Z" fill="white"/>
</svg>
