<svg width="16" height="17" viewBox="0 0 16 17" fill="none" xmlns="http://www.w3.org/2000/svg">
<path fill-rule="evenodd" clip-rule="evenodd" d="M7.00611 0C8.34286 4.94866e-05 9.65183 0.395846 10.7793 1.1409C11.9067 1.88595 12.8058 2.94932 13.371 4.2061C13.9361 5.46287 14.1438 6.86086 13.9697 8.23586C13.7956 9.61085 13.2469 10.9057 12.388 11.9684L15.7418 15.4387C15.8237 15.5237 15.8886 15.6245 15.9329 15.7354C15.9772 15.8464 16 15.9653 16 16.0854C16 16.2055 15.9772 16.3245 15.9329 16.4354C15.8886 16.5464 15.8237 16.6472 15.7418 16.7321C15.5765 16.9036 15.3523 17 15.1184 17C15.0027 17 14.888 16.9763 14.7811 16.9304C14.6741 16.8844 14.577 16.8171 14.4951 16.7321L11.115 13.1981C9.92583 14.0941 8.49336 14.5757 7.02367 14.5734C5.16088 14.5734 3.37438 13.8057 2.05719 12.4392C0.739992 11.0727 1.90735e-06 9.21928 1.90735e-06 7.28672C1.90735e-06 5.35416 0.739992 3.50076 2.05719 2.13423C3.37438 0.767706 5.16088 0 7.02367 0H7.00611ZM7.00611 12.7518C8.04797 12.7518 9.06644 12.4312 9.93272 11.8307C10.799 11.2302 11.4742 10.3767 11.8729 9.3781C12.2716 8.37949 12.3759 7.28066 12.1726 6.22054C11.9694 5.16043 11.4677 4.18665 10.731 3.42235C9.99427 2.65805 9.05564 2.13756 8.0338 1.92669C7.01195 1.71582 5.95279 1.82405 4.99023 2.23768C4.02767 2.65132 3.20496 3.35178 2.62614 4.25051C2.04731 5.14923 1.73836 6.20584 1.73836 7.28672C1.73836 8.73614 2.29335 10.1262 3.28125 11.1511C4.26914 12.176 5.60902 12.7518 7.00611 12.7518Z" fill="#000"/>
</svg>
