<svg width="20" height="20" viewBox="0 0 20 20" fill="none" xmlns="http://www.w3.org/2000/svg">
<path d="M0.380911 18.9799C0.136939 18.7345 0 18.4025 0 18.0564C0 17.7104 0.136939 17.3784 0.380911 17.133L17.056 0.457869C17.1734 0.320746 17.3179 0.209377 17.4805 0.130752C17.643 0.0521274 17.82 0.00794415 18.0004 0.000976114C18.1808 -0.00599192 18.3607 0.0244057 18.5288 0.0902606C18.6969 0.156115 18.8495 0.256006 18.9772 0.383662C19.1048 0.511319 19.2047 0.663985 19.2706 0.832079C19.3364 1.00017 19.3668 1.18006 19.3599 1.36046C19.3529 1.54086 19.3087 1.71787 19.2301 1.88039C19.1515 2.0429 19.0401 2.18741 18.903 2.30484L2.22788 18.9799C1.98245 19.2239 1.65045 19.3608 1.30439 19.3608C0.958336 19.3608 0.626338 19.2239 0.380911 18.9799Z" fill="#000"/>
<path d="M0.380911 0.457571C0.626338 0.2136 0.958336 0.0766602 1.30439 0.0766602C1.65045 0.0766602 1.98245 0.2136 2.22788 0.457571L18.903 17.1327C19.0401 17.2501 19.1515 17.3946 19.2301 17.5571C19.3087 17.7196 19.3529 17.8966 19.3599 18.077C19.3668 18.2574 19.3364 18.4373 19.2706 18.6054C19.2047 18.7735 19.1048 18.9262 18.9772 19.0538C18.8495 19.1815 18.6969 19.2814 18.5288 19.3472C18.3607 19.4131 18.1808 19.4435 18.0004 19.4365C17.82 19.4296 17.643 19.3854 17.4805 19.3067C17.3179 19.2281 17.1734 19.1168 17.056 18.9796L0.380911 2.30454C0.136939 2.05911 0 1.72711 0 1.38105C0 1.035 0.136939 0.702998 0.380911 0.457571Z" fill="#000"/>
</svg>
