<svg width="18" height="19" viewBox="0 0 18 19" fill="none" xmlns="http://www.w3.org/2000/svg">
<path fill-rule="evenodd" clip-rule="evenodd" d="M7.88187 0C9.38571 5.53085e-05 10.8583 0.442416 12.1267 1.27512C13.3951 2.10783 14.4066 3.2963 15.0423 4.70093C15.6781 6.10556 15.9118 7.66802 15.7159 9.20478C15.52 10.7415 14.9027 12.1888 13.9365 13.3765L17.7095 17.2551C17.8016 17.35 17.8747 17.4627 17.9245 17.5867C17.9743 17.7107 18 17.8436 18 17.9778C18 18.1121 17.9743 18.245 17.9245 18.369C17.8747 18.493 17.8016 18.6057 17.7095 18.7006C17.5235 18.8923 17.2713 19 17.0083 19C16.878 19 16.7491 18.9736 16.6287 18.9222C16.5084 18.8708 16.3991 18.7955 16.307 18.7006L12.5043 14.7508C11.1666 15.7522 9.55503 16.2904 7.90163 16.288C5.80599 16.288 3.79618 15.4299 2.31433 13.9026C0.832491 12.3753 1.90735e-06 10.3039 1.90735e-06 8.14398C1.90735e-06 5.98406 0.832491 3.91261 2.31433 2.38532C3.79618 0.858024 5.80599 0 7.90163 0H7.88187ZM7.88187 14.252C9.05397 14.252 10.1997 13.8937 11.1743 13.2226C12.1489 12.5514 12.9084 11.5975 13.357 10.4814C13.8055 9.36532 13.9229 8.1372 13.6942 6.95237C13.4656 5.76754 12.9011 4.6792 12.0723 3.82498C11.2435 2.97077 10.1876 2.38904 9.03802 2.15336C7.88845 1.91768 6.69688 2.03864 5.61401 2.50094C4.53113 2.96324 3.60558 3.74611 2.9544 4.75057C2.30322 5.75502 1.95565 6.93593 1.95565 8.14398C1.95565 9.76392 2.58002 11.3175 3.6914 12.463C4.80279 13.6084 6.31014 14.252 7.88187 14.252Z" fill="#ABABAB"/>
</svg>
