<svg width="17" height="11" viewBox="0 0 17 11" fill="none" xmlns="http://www.w3.org/2000/svg">
<path fill-rule="evenodd" clip-rule="evenodd" d="M15.8216 0.367709C15.907 0.467511 15.9718 0.58315 16.0125 0.708024C16.0532 0.832898 16.0689 0.96456 16.0587 1.09549C16.0484 1.22642 16.0125 1.35406 15.953 1.47112C15.8934 1.58817 15.8114 1.69235 15.7116 1.77771L6.12161 10.0077C5.88375 10.2105 5.57615 10.3124 5.26427 10.2919C4.95239 10.2713 4.66083 10.1299 4.45161 9.89771L0.261611 5.28771C0.172969 5.19053 0.104336 5.07685 0.0596293 4.95314C0.014923 4.82944 -0.00498067 4.69814 0.00105514 4.56675C0.00709095 4.43535 0.038948 4.30643 0.0948071 4.18735C0.150666 4.06827 0.229433 3.96135 0.326611 3.87271C0.42379 3.78407 0.537476 3.71543 0.661178 3.67073C0.784881 3.62602 0.916179 3.60612 1.04757 3.61215C1.17897 3.61819 1.30789 3.65005 1.42697 3.7059C1.54605 3.76176 1.65297 3.84053 1.74161 3.93771L5.41161 7.93771L14.4116 0.227709C14.5133 0.144079 14.6305 0.0813456 14.7564 0.0431094C14.8824 0.00487306 15.0147 -0.00811402 15.1457 0.00489324C15.2767 0.0179005 15.4038 0.0566459 15.5198 0.118907C15.6358 0.181168 15.7384 0.265719 15.8216 0.367709Z" fill="#1FAF3F"/>
</svg>
